<svg width="41.82" height="39.57" viewBox="99.744 8.819 41.817 39.568" fill="none" xmlns="http://www.w3.org/2000/svg">
<path fill-rule="evenodd" clip-rule="evenodd" d="M121.209 21.9059C121.209 21.9059 117.405 15.2955 109.776 18.3701C109.776 18.3701 101.244 23.155 113.888 30.8799C113.888 30.8799 115.079 31.8407 111.428 33.5509C111.428 33.5509 103.684 38.8738 109.661 40.5649C109.661 40.5649 116.636 41.9484 119.845 36.3565C119.845 36.3565 120.691 33.3203 121.555 34.8576C121.555 34.8576 123.669 39.0468 126.628 40.8339C126.628 40.8339 133.181 46.887 133.143 41.3719C133.143 41.3719 131.183 35.3573 129.28 34.2427L133.412 32.0521C133.412 32.0521 140.061 29.381 136.64 22.6169C136.64 22.6169 135.16 18.889 128.319 20.8682L123.458 23.1358L121.229 21.9443L121.209 21.9059Z" fill="#E51E5B"/>
<path fill-rule="evenodd" clip-rule="evenodd" d="M120.114 36.1071C118.941 40.1809 111.601 43.3131 108.353 42.0449C107.777 41.8335 107.373 41.6605 107.104 41.1417C106.374 39.7197 107.719 36.8565 108.526 35.7804C109.41 34.6274 110.294 33.6666 111.543 32.8787C112.1 32.5136 112.773 32.2638 113.138 32.0716C113.772 31.7065 113.522 31.8411 112.965 31.2838C111.966 30.2845 110.39 29.8041 109.276 28.7857C107.546 27.1907 105.971 25.7303 105.317 23.8471C105.163 23.4051 104.952 21.4835 105.01 21.0415C105.125 20.2152 105.682 18.774 106.105 18.0822C107.354 16.0261 109.891 15.8339 112.043 16.1798C114.041 16.4873 115.713 17.0446 117.481 18.063C118.25 18.505 118.653 19.0623 119.249 19.5427C120.363 20.4266 121.209 21.2529 121.286 21.8871L121.094 22.4635C118.423 19.6195 114.003 16.3912 109.871 17.352C105.625 18.3513 105.663 21.5027 107.085 24.8656C107.815 26.5758 110.486 28.3437 112.004 29.3237C112.811 29.8426 115.425 30.6112 114.426 32.1677C112.254 33.2631 106.682 37.0679 107.527 40.2962C108.507 42.41 110.429 41.6029 112.389 41.1417C115.867 40.3154 115.271 39.4122 118.058 37.8173L118.884 37.1255C119.038 36.7988 119.21 36.4145 119.364 36.0878C119.691 35.6266 120.018 35.8957 120.094 36.1071H120.114Z" fill="#1A1A18"/>
<path fill-rule="evenodd" clip-rule="evenodd" d="M121.958 36.7406C121.996 37.2403 122.573 38.374 123.611 39.6231C124.398 40.5839 125.648 41.4486 126.685 42.3902C128.05 43.6201 129.03 44.8883 130.202 45.3687C131.739 45.9836 133.411 45.6378 133.603 43.1781C133.641 42.7745 133.449 42.102 133.411 41.6024C133.276 40.0651 132.431 38.6623 131.777 37.3556C130.855 35.53 129.26 34.3002 129.26 34.3002C130.97 33.7237 132.2 33.4162 133.449 32.3978C135.582 30.6683 137.062 29.7652 137.869 28.6314C139.06 26.998 138.984 25.5376 138.984 25.5376C139.137 22.7128 138.157 21.2139 137.235 20.0033C136.37 18.8888 135.371 18.6774 134.103 18.466C131.297 18.0048 128.05 18.9464 125.993 20.7143C125.052 21.5214 124.014 22.0787 123.841 22.6552C123.841 22.6552 123.438 23.0395 124.014 23.174C124.014 23.174 126.359 21.5598 127.742 20.2916C129.664 19.0809 131.585 18.8696 133.411 19.2923C134.18 19.4653 135.063 19.6382 135.698 20.0994C137.004 21.0602 137.927 22.6359 138.119 24.8074C138.292 26.3639 137.158 28.2663 136.197 29.0734C136.197 29.0734 134.083 31.9942 129.356 33.5315C129.356 33.5315 128.242 33.9159 129.183 35.0112C129.183 35.0112 131.124 36.9905 131.528 38.105C131.528 38.105 131.989 39.6999 132.258 40.0651C132.258 40.0651 133.315 42.4863 132.834 43.524C132.834 43.524 132.008 46.3488 128.626 43.5432C128.626 43.5432 128.261 42.64 126.07 41.1796C126.07 41.1796 122.976 37.5093 122.477 36.5677C122.208 36.3948 122.035 36.4332 121.977 36.7406H121.958Z" fill="#1A1A18"/>
<path fill-rule="evenodd" clip-rule="evenodd" d="M123.284 26.7681C123.188 28.536 122.919 30.7843 122.343 33.5899C122.189 34.5315 121.939 35.377 121.785 36.3186C121.401 36.6453 121.036 36.8374 120.748 36.1841C120.248 33.244 120.21 30.1502 120.69 27.1525C120.825 26.2685 121.824 20.7343 122.689 20.8303C123.457 20.9264 123.342 26.1532 123.304 26.7874L123.284 26.7681Z" fill="#1A1A18"/>
<path fill-rule="evenodd" clip-rule="evenodd" d="M122.535 19.7924C122.535 19.7924 124.226 14.9114 127.973 13.6432C127.973 13.6432 128.742 13.2396 128.607 13.8161C128.607 13.8161 128.146 14.3157 126.244 15.5071C126.244 15.5071 123.957 17.448 123.592 18.9853C123.592 18.9853 123.189 19.9845 122.823 19.9653L122.593 20.119L122.535 19.8116V19.7924Z" fill="#1A1A18"/>
<path fill-rule="evenodd" clip-rule="evenodd" d="M122.266 20.0615C122.266 20.0615 122.612 15.392 118.327 11.5872C118.327 11.5872 116.77 10.3189 117.039 11.5103C117.039 11.5103 118 12.2789 118.711 13.0476C118.711 13.0476 120.594 14.3735 120.575 16.0645L121.882 19.7348L122.285 20.0615H122.266Z" fill="#1A1A18"/>
<path fill-rule="evenodd" clip-rule="evenodd" d="M112.869 20.5803C113.773 20.7917 114.33 21.6564 114.138 22.5212C113.926 23.3859 113.042 23.9047 112.139 23.6934C111.236 23.482 110.679 22.6173 110.871 21.7525C111.082 20.8878 111.966 20.369 112.869 20.5803Z" fill="white"/>
<path fill-rule="evenodd" clip-rule="evenodd" d="M114.695 25.9609C115.252 26.0954 115.579 26.6142 115.463 27.1523C115.348 27.6711 114.791 27.9978 114.253 27.8633C113.695 27.7288 113.369 27.2099 113.484 26.6719C113.599 26.153 114.157 25.8263 114.695 25.9609Z" fill="white"/>
<path fill-rule="evenodd" clip-rule="evenodd" d="M134.276 22.6745C135.256 22.9051 135.87 23.8467 135.64 24.7883C135.429 25.7299 134.449 26.2872 133.468 26.0758C132.488 25.8452 131.874 24.9036 132.104 23.962C132.316 23.0204 133.296 22.4632 134.276 22.6745Z" fill="white"/>
<path fill-rule="evenodd" clip-rule="evenodd" d="M129.952 27.6131C130.375 27.7092 130.663 28.1319 130.548 28.5355C130.452 28.9582 130.029 29.208 129.587 29.0927C129.164 28.9966 128.876 28.5739 128.991 28.1703C129.088 27.7476 129.51 27.4978 129.952 27.6131Z" fill="white"/>
<path fill-rule="evenodd" clip-rule="evenodd" d="M130.183 39.0857C130.605 39.1818 130.894 39.6046 130.778 40.0273C130.682 40.4501 130.26 40.6999 129.818 40.5846C129.395 40.4885 129.107 40.0658 129.222 39.643C129.318 39.2202 129.741 38.9704 130.183 39.0857Z" fill="white"/>
<path fill-rule="evenodd" clip-rule="evenodd" d="M110.986 37.7208C111.409 37.8169 111.697 38.2397 111.582 38.6624C111.467 39.0852 111.063 39.335 110.621 39.2197C110.198 39.1236 109.91 38.7008 110.026 38.2973C110.122 37.8745 110.544 37.6247 110.986 37.74V37.7208Z" fill="white"/>
</svg>
