<svg width="44.20" height="49.03" viewBox="40.378 24.616 44.204 49.028" fill="none" xmlns="http://www.w3.org/2000/svg">
<path fill-rule="evenodd" clip-rule="evenodd" d="M69.7032 43.645C69.7032 43.645 73.1424 35.5239 64.9992 30.6424C64.9992 30.6424 54.6371 26.116 56.3678 43.1346C56.3678 43.1346 56.3234 44.9097 52.1963 42.7352C52.1963 42.7352 41.9008 39.3182 44.4969 45.9748C44.4969 45.9748 48.0692 53.3636 55.4802 52.4095C55.4802 52.4095 58.8751 51.0782 58.0319 52.942C58.0319 52.942 55.6356 57.8013 56.0793 61.7731C56.0793 61.7731 55.0808 72.0242 60.1177 68.1412C60.1177 68.1412 64.2669 62.1503 63.9785 59.6208L68.86 61.884C68.86 61.884 75.9603 66.1443 79.799 58.2895C79.799 58.2895 82.1954 54.3177 75.6275 49.414L70.1469 46.5073L69.7032 43.6228V43.645Z" fill="#FEE12B"/>
<path fill-rule="evenodd" clip-rule="evenodd" d="M55.8792 52.5201C51.3084 54.2952 43.3205 49.7022 42.2111 45.8414C42.0114 45.1757 41.8782 44.6654 42.1667 44.0441C42.9655 42.3799 46.5378 41.6255 48.091 41.6255C49.7552 41.6255 51.264 41.7808 52.8838 42.3799C53.616 42.6462 54.3039 43.09 54.7476 43.2675C55.5242 43.6003 55.2358 43.4672 55.3467 42.5574C55.5686 40.9377 54.9029 39.1626 55.0805 37.4097C55.3467 34.7027 55.5908 32.2397 56.8556 30.3093C57.144 29.8655 58.786 28.3345 59.2297 28.0683C60.0729 27.6023 61.7814 27.1141 62.7134 27.0254C65.4647 26.7369 67.4173 28.9558 68.6155 31.1747C69.7028 33.216 70.3684 35.1686 70.6791 37.4984C70.8122 38.5191 70.5681 39.2735 70.5459 40.1611C70.5016 41.803 70.3241 43.1565 69.7915 43.6669L69.1259 43.8888C69.8803 39.4288 69.7693 33.1273 65.9973 29.9987C62.1143 26.7813 59.2519 29.0224 57.144 32.6835C56.0789 34.5473 56.323 38.2307 56.4784 40.3164C56.5671 41.4258 57.6765 44.3547 55.5464 44.5322C53.0391 43.2897 45.6503 40.8267 43.2539 43.8444C41.9892 46.2186 44.0749 47.4389 45.8722 48.9034C49.0451 51.5216 49.4667 50.3456 52.8838 51.8101L54.1042 52.0764C54.5036 51.9876 54.9695 51.8988 55.3911 51.7879C56.0568 51.7879 56.0124 52.2539 55.8792 52.4758V52.5201Z" fill="#1A1A18"/>
<path fill-rule="evenodd" clip-rule="evenodd" d="M56.5666 54.6728C56.1228 55.05 55.5016 56.3813 55.0578 58.2008C54.725 59.5987 54.7915 61.3516 54.6584 62.9713C54.4809 65.0793 53.9927 66.8765 54.3699 68.2966C54.8803 70.1383 56.3447 71.4252 58.7633 69.8942C59.1627 69.6501 59.6286 69.0066 60.0724 68.6073C61.3815 67.4313 62.1138 65.6562 62.846 64.1251C63.8667 61.995 63.911 59.6652 63.911 59.6652C65.6196 60.8412 66.7734 61.751 68.5928 62.1947C71.6771 62.9492 73.5409 63.6814 75.1385 63.637C77.4683 63.5926 78.7774 62.5054 78.7774 62.5054C81.4844 60.6637 82.1945 58.7111 82.6604 57.0248C83.082 55.4494 82.5717 54.3843 81.8838 53.0752C80.3528 50.1685 77.2242 47.8387 74.1844 47.173C72.7865 46.8624 71.5661 46.3077 70.8783 46.5296C70.8783 46.5296 70.2348 46.4408 70.5232 47.0621C70.5232 47.0621 73.6518 48.0828 75.782 48.4822C78.2227 49.3919 79.7759 51.0339 80.6413 53.0086C81.0185 53.8518 81.4844 54.7615 81.4844 55.6713C81.5066 57.5573 80.7078 59.4877 78.844 61.1741C77.5349 62.4166 74.9832 62.7051 73.5853 62.3722C73.5853 62.3722 69.4138 62.461 64.7098 59.1771C64.7098 59.1771 63.5782 58.4227 63.2232 60.0424C63.2232 60.0424 62.7572 63.2154 62.0028 64.3692C62.0028 64.3692 60.849 65.9224 60.6937 66.4106C60.6937 66.4106 59.207 69.0732 57.9201 69.3395C57.9201 69.3395 54.7471 70.5377 54.969 65.4787C54.969 65.4787 55.5459 64.5245 55.3684 61.4847C55.3684 61.4847 56.5888 56.0707 57.1213 54.9834C57.0991 54.6284 56.9438 54.4731 56.611 54.6506L56.5666 54.6728Z" fill="#1A1A18"/>
<path fill-rule="evenodd" clip-rule="evenodd" d="M66.663 48.9258C64.9544 50.0796 62.7134 51.3887 59.7179 52.8088C58.7638 53.3191 57.7875 53.6742 56.8112 54.1845C56.2565 54.0514 55.8127 53.8517 56.2121 53.1194C58.5641 50.6121 61.3821 48.4376 64.4885 46.7513C65.3982 46.2632 71.1895 43.3121 71.6998 44.1774C72.1436 44.954 67.2399 48.482 66.663 48.8814V48.9258Z" fill="#1A1A18"/>
<path fill-rule="evenodd" clip-rule="evenodd" d="M72.5651 43.4006C72.5651 43.4006 78.2454 41.559 82.0175 44.1107C82.0175 44.1107 82.9272 44.5323 82.2837 44.8207C82.2837 44.8207 81.5071 44.7541 79.0886 43.8222C79.0886 43.8222 75.7159 43.0678 74.0518 43.8222C74.0518 43.8222 72.8536 44.1329 72.6317 43.8L72.321 43.6891L72.5651 43.4228V43.4006Z" fill="#1A1A18"/>
<path fill-rule="evenodd" clip-rule="evenodd" d="M72.1435 43.3118C72.1435 43.3118 76.67 40.3829 77.2025 33.7929C77.2025 33.7929 77.2912 31.4853 76.3815 32.5504C76.3815 32.5504 76.3371 33.9704 76.1153 35.1686C76.1153 35.1686 76.204 37.8313 74.6286 38.9851L72.1657 42.7349V43.334L72.1435 43.3118Z" fill="#1A1A18"/>
<path fill-rule="evenodd" clip-rule="evenodd" d="M65.1101 35.0133C65.5317 35.9896 65.1323 37.1212 64.2004 37.5428C63.2685 37.9643 62.1591 37.4984 61.7153 36.5221C61.2715 35.5458 61.6931 34.4142 62.625 33.9926C63.5569 33.571 64.6664 34.037 65.1101 35.0133Z" fill="white"/>
<path fill-rule="evenodd" clip-rule="evenodd" d="M61.4264 40.4496C61.6927 41.0487 61.4264 41.7365 60.8717 41.9806C60.2948 42.2247 59.6291 41.9584 59.3629 41.3593C59.0966 40.7602 59.3629 40.0724 59.9176 39.8283C60.4945 39.5842 61.1601 39.8505 61.4264 40.4496Z" fill="white"/>
<path fill-rule="evenodd" clip-rule="evenodd" d="M78.0901 56.2037C78.556 57.2688 78.1123 58.4892 77.0916 58.9329C76.0709 59.3767 74.8727 58.8886 74.4068 57.8235C73.9408 56.7585 74.3846 55.5381 75.4053 55.0943C76.4259 54.6505 77.6241 55.1387 78.0901 56.2037Z" fill="white"/>
<path fill-rule="evenodd" clip-rule="evenodd" d="M70.5459 55.6487C70.7456 56.1147 70.5459 56.6472 70.1022 56.8469C69.6584 57.0466 69.1259 56.8469 68.9262 56.3588C68.7265 55.8928 68.9262 55.3603 69.3699 55.1606C69.8137 54.9609 70.3462 55.1606 70.5459 55.6487Z" fill="white"/>
<path fill-rule="evenodd" clip-rule="evenodd" d="M60.1395 63.8803C60.3392 64.3463 60.1395 64.8788 59.6957 65.0785C59.2519 65.2782 58.7194 65.0785 58.5197 64.5903C58.32 64.1244 58.5197 63.5918 58.9635 63.3921C59.4072 63.1925 59.9398 63.3921 60.1395 63.8803Z" fill="white"/>
<path fill-rule="evenodd" clip-rule="evenodd" d="M48.0245 45.2426C48.2242 45.7086 48.0245 46.2411 47.5807 46.4408C47.1369 46.6405 46.6044 46.4408 46.4047 45.9526C46.205 45.4867 46.4047 44.9541 46.8485 44.7545C47.2923 44.5548 47.8248 44.7545 48.0245 45.2426Z" fill="white"/>
</svg>
