<svg width="21.05" height="23.18" viewBox="-1.545 12.934 21.047 23.183" fill="none" xmlns="http://www.w3.org/2000/svg">
<path fill-rule="evenodd" clip-rule="evenodd" d="M12.2022 22.4214C12.2022 22.4214 13.8723 18.9259 10.3897 16.6214C10.3897 16.6214 5.92325 14.4335 6.35047 21.9423C6.35047 21.9423 6.29869 22.7191 4.52505 21.6834C4.52505 21.6834 0.058589 19.9875 1.08134 22.9651C1.08134 22.9651 2.50543 26.2793 5.78083 26.0075C5.78083 26.0075 7.29555 25.4896 6.89421 26.2923C6.89421 26.2923 5.75495 28.3896 5.85852 30.1373C5.85852 30.1373 5.22415 34.6167 7.50269 33.0244C7.50269 33.0244 9.44463 30.4739 9.36695 29.3476L11.4772 30.4351C11.4772 30.4351 14.5066 32.4547 16.3579 29.0628C16.3579 29.0628 17.4972 27.3668 14.7008 25.0754L12.3446 23.6901L12.2022 22.4084V22.4214Z" fill="#A1D9F8"/>
<path fill-rule="evenodd" clip-rule="evenodd" d="M5.94911 26.0591C3.9036 26.7452 0.485783 24.5703 0.0715025 22.8484C-0.00617505 22.5507 -0.0450111 22.3176 0.0844515 22.0587C0.459893 21.3467 2.05228 21.0748 2.73843 21.1136C3.47637 21.1525 4.13663 21.2431 4.82278 21.5409C5.13349 21.6703 5.43126 21.8775 5.62545 21.9681C5.96205 22.1364 5.83259 22.0587 5.89732 21.6703C6.02678 20.9583 5.76786 20.1685 5.88437 19.4047C6.05267 18.2266 6.20803 17.1391 6.80356 16.3235C6.94596 16.1293 7.69685 15.4949 7.89105 15.3914C8.26649 15.1972 9.03031 15.0289 9.44459 15.003C10.6615 14.9383 11.4772 15.9351 11.9562 16.9449C12.3963 17.8641 12.6553 18.7315 12.7329 19.7672C12.7718 20.2203 12.6553 20.544 12.6294 20.9324C12.5776 21.6574 12.474 22.2529 12.228 22.46L11.9303 22.5507C12.3575 20.6087 12.4222 17.8253 10.8298 16.3882C9.18567 14.8994 7.89105 15.8186 6.88124 17.3851C6.37634 18.1878 6.40222 19.8061 6.44106 20.7252C6.45401 21.2172 6.88124 22.5248 5.94911 22.5636C4.87457 21.9681 1.66389 20.7382 0.563457 22.0199C-0.0320712 23.0426 0.861228 23.6123 1.61211 24.2984C2.95852 25.5154 3.16566 24.9975 4.64153 25.7096L5.17233 25.852C5.35358 25.8261 5.56071 25.7872 5.74196 25.7613C6.02678 25.7613 6.00089 25.9814 5.93616 26.072L5.94911 26.0591Z" fill="#1A1A18"/>
<path fill-rule="evenodd" clip-rule="evenodd" d="M6.20773 27.0173C6.01353 27.1727 5.70282 27.7423 5.46979 28.532C5.30149 29.1405 5.28854 29.9043 5.19792 30.6164C5.0814 31.5485 4.82248 32.3123 4.96489 32.9467C5.15908 33.7623 5.7805 34.3708 6.85504 33.7364C7.03629 33.6328 7.25638 33.361 7.46352 33.1927C8.07199 32.7007 8.42154 31.9369 8.77109 31.2766C9.26305 30.3704 9.32778 29.3476 9.32778 29.3476C10.0528 29.8914 10.5447 30.3186 11.3344 30.5516C12.6679 30.94 13.4835 31.3025 14.1826 31.3155C15.2054 31.3414 15.8009 30.8882 15.8009 30.8882C17.0308 30.1374 17.3803 29.2958 17.6134 28.5579C17.8335 27.8718 17.6263 27.3927 17.3545 26.7972C16.733 25.4896 15.4125 24.4022 14.0791 24.0526C13.4706 23.8843 12.9398 23.6124 12.642 23.7031C12.642 23.7031 12.3572 23.6513 12.4737 23.9361C12.4737 23.9361 13.8201 24.454 14.7523 24.6611C15.8139 25.1142 16.4612 25.8651 16.7978 26.7454C16.9402 27.1209 17.1344 27.5352 17.1214 27.9365C17.0955 28.7651 16.6942 29.6066 15.8527 30.3057C15.2572 30.8235 14.1308 30.9012 13.5224 30.7329C13.5224 30.7329 11.684 30.694 9.69027 29.1534C9.69027 29.1534 9.21126 28.8039 9.01706 29.503C9.01706 29.503 8.7452 30.8882 8.39565 31.3802C8.39565 31.3802 7.86485 32.0405 7.78717 32.2476C7.78717 32.2476 7.07513 33.3869 6.5055 33.4775C6.5055 33.4775 5.0814 33.9436 5.28854 31.7297C5.28854 31.7297 5.56041 31.3155 5.54746 29.982C5.54746 29.982 6.19478 27.6258 6.44076 27.1597C6.44076 27.0044 6.37603 26.9267 6.22068 27.0044L6.20773 27.0173Z" fill="#1A1A18"/>
<path fill-rule="evenodd" clip-rule="evenodd" d="M10.7521 24.6869C9.97529 25.1529 8.96548 25.6967 7.61907 26.2663C7.1789 26.4734 6.75167 26.6159 6.3115 26.823C6.06552 26.7583 5.87132 26.6547 6.06552 26.344C7.153 25.2953 8.43469 24.3891 9.83288 23.7159C10.2472 23.5217 12.8494 22.3436 13.0565 22.732C13.2377 23.0815 11.011 24.5445 10.7391 24.6998L10.7521 24.6869Z" fill="#1A1A18"/>
<path fill-rule="evenodd" clip-rule="evenodd" d="M13.4711 22.3692C13.4711 22.3692 16.0086 21.6701 17.6139 22.8741C17.6139 22.8741 18.0023 23.0812 17.7175 23.1848C17.7175 23.1848 17.3809 23.133 16.3322 22.6799C16.3322 22.6799 14.8693 22.2786 14.1184 22.5763C14.1184 22.5763 13.5876 22.6928 13.4841 22.5375L13.3546 22.4857L13.4582 22.3821L13.4711 22.3692Z" fill="#1A1A18"/>
<path fill-rule="evenodd" clip-rule="evenodd" d="M13.2768 22.3303C13.2768 22.3303 15.3223 21.1263 15.6848 18.2393C15.6848 18.2393 15.7625 17.2295 15.3482 17.6697C15.3482 17.6697 15.3094 18.2911 15.1799 18.8089C15.1799 18.8089 15.1799 19.9871 14.4549 20.4531L13.3027 22.0584L13.2768 22.3174V22.3303Z" fill="#1A1A18"/>
<path fill-rule="evenodd" clip-rule="evenodd" d="M10.3507 18.5374C10.519 18.9776 10.3248 19.4695 9.89756 19.6249C9.48328 19.7932 9.00428 19.5601 8.82303 19.1329C8.65473 18.6927 8.84892 18.2008 9.27615 18.0454C9.69043 17.8771 10.1824 18.1102 10.3507 18.5374Z" fill="white"/>
<path fill-rule="evenodd" clip-rule="evenodd" d="M8.62888 20.8544C8.73245 21.1263 8.61593 21.424 8.35701 21.5147C8.09808 21.6182 7.81326 21.4758 7.70969 21.2169C7.60612 20.945 7.72264 20.6473 7.98156 20.5566C8.24049 20.4531 8.52531 20.5955 8.62888 20.8544Z" fill="white"/>
<path fill-rule="evenodd" clip-rule="evenodd" d="M15.6462 28.1045C15.8274 28.5835 15.6074 29.1143 15.1542 29.2826C14.7011 29.4638 14.1833 29.2179 13.9891 28.7388C13.8078 28.2598 14.0279 27.729 14.481 27.5607C14.9342 27.3795 15.452 27.6255 15.6462 28.1045Z" fill="white"/>
<path fill-rule="evenodd" clip-rule="evenodd" d="M12.3318 27.716C12.4094 27.9231 12.3188 28.1562 12.1117 28.2339C11.9045 28.3115 11.6844 28.208 11.5938 28.0008C11.5161 27.7937 11.6068 27.5607 11.8139 27.483C12.021 27.4053 12.2411 27.5089 12.3318 27.716Z" fill="white"/>
<path fill-rule="evenodd" clip-rule="evenodd" d="M7.59313 31.1343C7.67081 31.3414 7.58019 31.5744 7.37305 31.6521C7.16591 31.7298 6.94582 31.6262 6.8552 31.4191C6.77752 31.212 6.86814 30.9789 7.07528 30.9012C7.28242 30.8236 7.50251 30.9271 7.59313 31.1343Z" fill="white"/>
<path fill-rule="evenodd" clip-rule="evenodd" d="M2.63479 22.6931C2.71247 22.9002 2.62185 23.1333 2.41471 23.2109C2.20757 23.2886 1.98748 23.185 1.89685 22.9779C1.81918 22.7708 1.90981 22.5377 2.11695 22.4601C2.32409 22.3824 2.54417 22.4859 2.63479 22.6931Z" fill="white"/>
</svg>
