<svg width="41.48" height="42.64" viewBox="157.351 -2.273 41.476 42.635" fill="none" xmlns="http://www.w3.org/2000/svg">
<path fill-rule="evenodd" clip-rule="evenodd" d="M181.447 11.5005C181.447 11.5005 180.638 3.99296 172.523 3.73535C172.523 3.73535 162.899 4.65539 171.253 16.6896C171.253 16.6896 171.953 18.0328 167.978 18.1248C167.978 18.1248 158.851 19.8545 163.58 23.7555C163.58 23.7555 169.321 27.7853 174.473 24.0131C174.473 24.0131 176.461 21.6026 176.608 23.3507C176.608 23.3507 176.847 27.9877 178.816 30.7846C178.816 30.7846 182.331 38.8626 184.484 33.876C184.484 33.876 185.109 27.6565 183.84 25.89L188.44 25.5588C188.44 25.5588 195.524 25.798 195.138 18.3088C195.138 18.3088 195.285 14.3342 188.329 13.4142L183.011 13.5246L181.484 11.5557L181.447 11.5005Z" fill="#A1D9F8"/>
<path fill-rule="evenodd" clip-rule="evenodd" d="M174.786 23.8848C172.099 27.1049 164.205 26.9945 161.777 24.5656C161.353 24.1424 161.041 23.8112 161.004 23.2408C160.893 21.6583 163.267 19.6158 164.426 18.9718C165.678 18.2909 166.874 17.7573 168.327 17.5549C168.971 17.4629 169.671 17.4997 170.094 17.4445C170.83 17.3709 170.535 17.3893 170.241 16.6717C169.726 15.3652 168.493 14.2979 167.904 12.9363C166.984 10.8018 166.138 8.86969 166.285 6.8824C166.322 6.42238 166.91 4.60069 167.131 4.21427C167.554 3.51504 168.658 2.44779 169.303 1.98777C171.253 0.626109 173.627 1.47255 175.448 2.6318C177.123 3.71745 178.429 4.89511 179.607 6.51438C180.122 7.23202 180.269 7.89445 180.619 8.55688C181.281 9.80814 181.705 10.8938 181.521 11.501L181.116 11.9426C179.828 8.29927 177.123 3.62545 173.001 2.85261C168.769 2.06137 167.554 4.91351 167.481 8.53848C167.444 10.3786 169.174 13.0467 170.149 14.5372C170.664 15.3284 172.725 17.0765 171.216 18.0885C168.824 18.1989 162.255 19.4318 161.74 22.6887C161.795 24.9888 163.856 25.0257 165.806 25.3937C169.284 26.0377 169.1 24.9704 172.265 24.6392L173.295 24.3448C173.572 24.1056 173.866 23.848 174.142 23.6088C174.639 23.3328 174.804 23.7008 174.786 23.9216V23.8848Z" fill="#1A1A18"/>
<path fill-rule="evenodd" clip-rule="evenodd" d="M176.203 25.2097C176.037 25.6697 176.111 26.9393 176.534 28.4666C176.865 29.6443 177.638 30.9323 178.209 32.202C178.963 33.8581 179.331 35.4037 180.214 36.3054C181.355 37.4646 182.993 37.8327 184.152 35.6798C184.336 35.3301 184.428 34.6493 184.594 34.1709C185.09 32.7356 184.888 31.1163 184.814 29.6627C184.704 27.657 183.747 25.8905 183.747 25.8905C185.514 26.0561 186.765 26.2585 188.311 25.8353C190.924 25.1177 192.635 24.8968 193.812 24.1976C195.542 23.1856 196.057 21.8423 196.057 21.8423C197.327 19.3398 197.033 17.5917 196.683 16.138C196.352 14.7764 195.524 14.1875 194.457 13.4883C192.101 11.9426 188.789 11.501 186.231 12.2739C185.054 12.6235 183.913 12.7155 183.508 13.1755C183.508 13.1755 182.993 13.3779 183.453 13.7275C183.453 13.7275 186.213 13.1939 187.979 12.6051C190.187 12.2739 192.028 12.8627 193.5 13.9667C194.125 14.4452 194.861 14.942 195.248 15.6044C196.039 17.0029 196.241 18.7878 195.561 20.8303C195.101 22.3023 193.316 23.572 192.12 23.9216C192.12 23.9216 189.047 25.7249 184.152 25.2281C184.152 25.2281 182.993 25.1361 183.398 26.4977C183.398 26.4977 184.354 29.0554 184.281 30.2331C184.281 30.2331 184.06 31.8708 184.152 32.294C184.152 32.294 184.152 34.9069 183.287 35.6429C183.287 35.6429 181.41 37.8694 179.478 33.9869C179.478 33.9869 179.515 33.03 178.117 30.8219C178.117 30.8219 176.792 26.2585 176.718 25.2281C176.552 24.9705 176.368 24.9152 176.184 25.1913L176.203 25.2097Z" fill="#1A1A18"/>
<path fill-rule="evenodd" clip-rule="evenodd" d="M181.373 16.7261C180.582 18.2901 179.441 20.2038 177.803 22.5223C177.288 23.3136 176.718 23.976 176.203 24.7672C175.724 24.9144 175.319 24.9328 175.319 24.2336C176.037 21.3815 177.251 18.5661 178.871 16.0268C179.349 15.2724 182.459 10.6722 183.195 11.1138C183.857 11.5002 181.649 16.1924 181.373 16.7445V16.7261Z" fill="#1A1A18"/>
<path fill-rule="evenodd" clip-rule="evenodd" d="M183.49 10.1204C183.49 10.1204 186.967 6.38501 190.868 6.71623C190.868 6.71623 191.715 6.66102 191.365 7.12105C191.365 7.12105 190.758 7.39706 188.568 7.69147C188.568 7.69147 185.734 8.53791 184.778 9.77077C184.778 9.77077 184.023 10.5068 183.692 10.3412L183.416 10.378L183.49 10.0836V10.1204Z" fill="#1A1A18"/>
<path fill-rule="evenodd" clip-rule="evenodd" d="M183.139 10.2309C183.139 10.2309 185.311 6.14589 182.974 0.993646C182.974 0.993646 182.072 -0.772836 181.833 0.404819C181.833 0.404819 182.403 1.49047 182.716 2.46572C182.716 2.46572 183.894 4.41621 183.195 5.94348L182.919 9.77086L183.139 10.2309Z" fill="#1A1A18"/>
<path fill-rule="evenodd" clip-rule="evenodd" d="M174.418 6.95574C175.154 7.50777 175.32 8.51981 174.786 9.21905C174.252 9.91828 173.24 10.0471 172.504 9.49506C171.768 8.94303 171.603 7.93099 172.136 7.23175C172.67 6.53252 173.682 6.40372 174.418 6.95574Z" fill="white"/>
<path fill-rule="evenodd" clip-rule="evenodd" d="M173.921 12.549C174.363 12.8802 174.473 13.5058 174.142 13.9291C173.829 14.3523 173.203 14.4259 172.762 14.0947C172.32 13.7634 172.21 13.1378 172.541 12.7146C172.854 12.2914 173.48 12.2178 173.921 12.549Z" fill="white"/>
<path fill-rule="evenodd" clip-rule="evenodd" d="M192.948 17.4072C193.739 18.0144 193.923 19.1001 193.334 19.8545C192.764 20.6089 191.66 20.7377 190.868 20.1489C190.077 19.5601 189.893 18.456 190.482 17.7016C191.052 16.9472 192.156 16.8184 192.948 17.4072Z" fill="white"/>
<path fill-rule="evenodd" clip-rule="evenodd" d="M187.06 20.1305C187.409 20.3881 187.483 20.885 187.225 21.2162C186.968 21.5474 186.489 21.6026 186.14 21.345C185.79 21.0874 185.716 20.5906 185.974 20.2593C186.232 19.9281 186.71 19.8729 187.06 20.1305Z" fill="white"/>
<path fill-rule="evenodd" clip-rule="evenodd" d="M182.698 30.6188C183.048 30.8764 183.122 31.3732 182.864 31.7045C182.606 32.0357 182.128 32.0909 181.778 31.8333C181.429 31.5757 181.355 31.0788 181.613 30.7476C181.87 30.4164 182.349 30.3612 182.698 30.6188Z" fill="white"/>
<path fill-rule="evenodd" clip-rule="evenodd" d="M165.88 21.7126C166.23 21.9702 166.303 22.467 166.046 22.7982C165.788 23.1294 165.31 23.1846 164.96 22.927C164.61 22.6694 164.537 22.1726 164.794 21.8414C165.052 21.5102 165.53 21.455 165.88 21.7126Z" fill="white"/>
</svg>
