<svg width="197" height="71" viewBox="0 0 197 71" fill="none" xmlns="http://www.w3.org/2000/svg">
<path fill-rule="evenodd" clip-rule="evenodd" d="M181.447 11.5005C181.447 11.5005 180.638 3.99296 172.523 3.73535C172.523 3.73535 162.899 4.65539 171.253 16.6896C171.253 16.6896 171.953 18.0328 167.978 18.1248C167.978 18.1248 158.851 19.8545 163.58 23.7555C163.58 23.7555 169.321 27.7853 174.473 24.0131C174.473 24.0131 176.461 21.6026 176.608 23.3507C176.608 23.3507 176.847 27.9877 178.816 30.7846C178.816 30.7846 182.331 38.8626 184.484 33.876C184.484 33.876 185.109 27.6565 183.84 25.89L188.44 25.5588C188.44 25.5588 195.524 25.798 195.138 18.3088C195.138 18.3088 195.285 14.3342 188.329 13.4142L183.011 13.5246L181.484 11.5557L181.447 11.5005Z" fill="#A1D9F8"/>
<path fill-rule="evenodd" clip-rule="evenodd" d="M174.786 23.8848C172.099 27.1049 164.205 26.9945 161.777 24.5656C161.353 24.1424 161.041 23.8112 161.004 23.2408C160.893 21.6583 163.267 19.6158 164.426 18.9718C165.678 18.2909 166.874 17.7573 168.327 17.5549C168.971 17.4629 169.671 17.4997 170.094 17.4445C170.83 17.3709 170.535 17.3893 170.241 16.6717C169.726 15.3652 168.493 14.2979 167.904 12.9363C166.984 10.8018 166.138 8.86969 166.285 6.8824C166.322 6.42238 166.91 4.60069 167.131 4.21427C167.554 3.51504 168.658 2.44779 169.303 1.98777C171.253 0.626109 173.627 1.47255 175.448 2.6318C177.123 3.71745 178.429 4.89511 179.607 6.51438C180.122 7.23202 180.269 7.89445 180.619 8.55688C181.281 9.80814 181.705 10.8938 181.521 11.501L181.116 11.9426C179.828 8.29927 177.123 3.62545 173.001 2.85261C168.769 2.06137 167.554 4.91351 167.481 8.53848C167.444 10.3786 169.174 13.0467 170.149 14.5372C170.664 15.3284 172.725 17.0765 171.216 18.0885C168.824 18.1989 162.255 19.4318 161.74 22.6887C161.795 24.9888 163.856 25.0257 165.806 25.3937C169.284 26.0377 169.1 24.9704 172.265 24.6392L173.295 24.3448C173.572 24.1056 173.866 23.848 174.142 23.6088C174.639 23.3328 174.804 23.7008 174.786 23.9216V23.8848Z" fill="#1A1A18"/>
<path fill-rule="evenodd" clip-rule="evenodd" d="M176.203 25.2097C176.037 25.6697 176.111 26.9393 176.534 28.4666C176.865 29.6443 177.638 30.9323 178.209 32.202C178.963 33.8581 179.331 35.4037 180.214 36.3054C181.355 37.4646 182.993 37.8327 184.152 35.6798C184.336 35.3301 184.428 34.6493 184.594 34.1709C185.09 32.7356 184.888 31.1163 184.814 29.6627C184.704 27.657 183.747 25.8905 183.747 25.8905C185.514 26.0561 186.765 26.2585 188.311 25.8353C190.924 25.1177 192.635 24.8968 193.812 24.1976C195.542 23.1856 196.057 21.8423 196.057 21.8423C197.327 19.3398 197.033 17.5917 196.683 16.138C196.352 14.7764 195.524 14.1875 194.457 13.4883C192.101 11.9426 188.789 11.501 186.231 12.2739C185.054 12.6235 183.913 12.7155 183.508 13.1755C183.508 13.1755 182.993 13.3779 183.453 13.7275C183.453 13.7275 186.213 13.1939 187.979 12.6051C190.187 12.2739 192.028 12.8627 193.5 13.9667C194.125 14.4452 194.861 14.942 195.248 15.6044C196.039 17.0029 196.241 18.7878 195.561 20.8303C195.101 22.3023 193.316 23.572 192.12 23.9216C192.12 23.9216 189.047 25.7249 184.152 25.2281C184.152 25.2281 182.993 25.1361 183.398 26.4977C183.398 26.4977 184.354 29.0554 184.281 30.2331C184.281 30.2331 184.06 31.8708 184.152 32.294C184.152 32.294 184.152 34.9069 183.287 35.6429C183.287 35.6429 181.41 37.8694 179.478 33.9869C179.478 33.9869 179.515 33.03 178.117 30.8219C178.117 30.8219 176.792 26.2585 176.718 25.2281C176.552 24.9705 176.368 24.9152 176.184 25.1913L176.203 25.2097Z" fill="#1A1A18"/>
<path fill-rule="evenodd" clip-rule="evenodd" d="M181.373 16.7261C180.582 18.2901 179.441 20.2038 177.803 22.5223C177.288 23.3136 176.718 23.976 176.203 24.7672C175.724 24.9144 175.319 24.9328 175.319 24.2336C176.037 21.3815 177.251 18.5661 178.871 16.0268C179.349 15.2724 182.459 10.6722 183.195 11.1138C183.857 11.5002 181.649 16.1924 181.373 16.7445V16.7261Z" fill="#1A1A18"/>
<path fill-rule="evenodd" clip-rule="evenodd" d="M183.49 10.1204C183.49 10.1204 186.967 6.38501 190.868 6.71623C190.868 6.71623 191.715 6.66102 191.365 7.12105C191.365 7.12105 190.758 7.39706 188.568 7.69147C188.568 7.69147 185.734 8.53791 184.778 9.77077C184.778 9.77077 184.023 10.5068 183.692 10.3412L183.416 10.378L183.49 10.0836V10.1204Z" fill="#1A1A18"/>
<path fill-rule="evenodd" clip-rule="evenodd" d="M183.139 10.2309C183.139 10.2309 185.311 6.14589 182.974 0.993646C182.974 0.993646 182.072 -0.772836 181.833 0.404819C181.833 0.404819 182.403 1.49047 182.716 2.46572C182.716 2.46572 183.894 4.41621 183.195 5.94348L182.919 9.77086L183.139 10.2309Z" fill="#1A1A18"/>
<path fill-rule="evenodd" clip-rule="evenodd" d="M174.418 6.95574C175.154 7.50777 175.32 8.51981 174.786 9.21905C174.252 9.91828 173.24 10.0471 172.504 9.49506C171.768 8.94303 171.603 7.93099 172.136 7.23175C172.67 6.53252 173.682 6.40372 174.418 6.95574Z" fill="white"/>
<path fill-rule="evenodd" clip-rule="evenodd" d="M173.921 12.549C174.363 12.8802 174.473 13.5058 174.142 13.9291C173.829 14.3523 173.203 14.4259 172.762 14.0947C172.32 13.7634 172.21 13.1378 172.541 12.7146C172.854 12.2914 173.48 12.2178 173.921 12.549Z" fill="white"/>
<path fill-rule="evenodd" clip-rule="evenodd" d="M192.948 17.4072C193.739 18.0144 193.923 19.1001 193.334 19.8545C192.764 20.6089 191.66 20.7377 190.868 20.1489C190.077 19.5601 189.893 18.456 190.482 17.7016C191.052 16.9472 192.156 16.8184 192.948 17.4072Z" fill="white"/>
<path fill-rule="evenodd" clip-rule="evenodd" d="M187.06 20.1305C187.409 20.3881 187.483 20.885 187.225 21.2162C186.968 21.5474 186.489 21.6026 186.14 21.345C185.79 21.0874 185.716 20.5906 185.974 20.2593C186.232 19.9281 186.71 19.8729 187.06 20.1305Z" fill="white"/>
<path fill-rule="evenodd" clip-rule="evenodd" d="M182.698 30.6188C183.048 30.8764 183.122 31.3732 182.864 31.7045C182.606 32.0357 182.128 32.0909 181.778 31.8333C181.429 31.5757 181.355 31.0788 181.613 30.7476C181.87 30.4164 182.349 30.3612 182.698 30.6188Z" fill="white"/>
<path fill-rule="evenodd" clip-rule="evenodd" d="M165.88 21.7126C166.23 21.9702 166.303 22.467 166.046 22.7982C165.788 23.1294 165.31 23.1846 164.96 22.927C164.61 22.6694 164.537 22.1726 164.794 21.8414C165.052 21.5102 165.53 21.455 165.88 21.7126Z" fill="white"/>
<path fill-rule="evenodd" clip-rule="evenodd" d="M121.209 21.9059C121.209 21.9059 117.405 15.2955 109.776 18.3701C109.776 18.3701 101.244 23.155 113.888 30.8799C113.888 30.8799 115.079 31.8407 111.428 33.5509C111.428 33.5509 103.684 38.8738 109.661 40.5649C109.661 40.5649 116.636 41.9484 119.845 36.3565C119.845 36.3565 120.691 33.3203 121.555 34.8576C121.555 34.8576 123.669 39.0468 126.628 40.8339C126.628 40.8339 133.181 46.887 133.143 41.3719C133.143 41.3719 131.183 35.3573 129.28 34.2427L133.412 32.0521C133.412 32.0521 140.061 29.381 136.64 22.6169C136.64 22.6169 135.16 18.889 128.319 20.8682L123.458 23.1358L121.229 21.9443L121.209 21.9059Z" fill="#E51E5B"/>
<path fill-rule="evenodd" clip-rule="evenodd" d="M120.114 36.1071C118.941 40.1809 111.601 43.3131 108.353 42.0449C107.777 41.8335 107.373 41.6605 107.104 41.1417C106.374 39.7197 107.719 36.8565 108.526 35.7804C109.41 34.6274 110.294 33.6666 111.543 32.8787C112.1 32.5136 112.773 32.2638 113.138 32.0716C113.772 31.7065 113.522 31.8411 112.965 31.2838C111.966 30.2845 110.39 29.8041 109.276 28.7857C107.546 27.1907 105.971 25.7303 105.317 23.8471C105.163 23.4051 104.952 21.4835 105.01 21.0415C105.125 20.2152 105.682 18.774 106.105 18.0822C107.354 16.0261 109.891 15.8339 112.043 16.1798C114.041 16.4873 115.713 17.0446 117.481 18.063C118.25 18.505 118.653 19.0623 119.249 19.5427C120.363 20.4266 121.209 21.2529 121.286 21.8871L121.094 22.4635C118.423 19.6195 114.003 16.3912 109.871 17.352C105.625 18.3513 105.663 21.5027 107.085 24.8656C107.815 26.5758 110.486 28.3437 112.004 29.3237C112.811 29.8426 115.425 30.6112 114.426 32.1677C112.254 33.2631 106.682 37.0679 107.527 40.2962C108.507 42.41 110.429 41.6029 112.389 41.1417C115.867 40.3154 115.271 39.4122 118.058 37.8173L118.884 37.1255C119.038 36.7988 119.21 36.4145 119.364 36.0878C119.691 35.6266 120.018 35.8957 120.094 36.1071H120.114Z" fill="#1A1A18"/>
<path fill-rule="evenodd" clip-rule="evenodd" d="M121.958 36.7406C121.996 37.2403 122.573 38.374 123.611 39.6231C124.398 40.5839 125.648 41.4486 126.685 42.3902C128.05 43.6201 129.03 44.8883 130.202 45.3687C131.739 45.9836 133.411 45.6378 133.603 43.1781C133.641 42.7745 133.449 42.102 133.411 41.6024C133.276 40.0651 132.431 38.6623 131.777 37.3556C130.855 35.53 129.26 34.3002 129.26 34.3002C130.97 33.7237 132.2 33.4162 133.449 32.3978C135.582 30.6683 137.062 29.7652 137.869 28.6314C139.06 26.998 138.984 25.5376 138.984 25.5376C139.137 22.7128 138.157 21.2139 137.235 20.0033C136.37 18.8888 135.371 18.6774 134.103 18.466C131.297 18.0048 128.05 18.9464 125.993 20.7143C125.052 21.5214 124.014 22.0787 123.841 22.6552C123.841 22.6552 123.438 23.0395 124.014 23.174C124.014 23.174 126.359 21.5598 127.742 20.2916C129.664 19.0809 131.585 18.8696 133.411 19.2923C134.18 19.4653 135.063 19.6382 135.698 20.0994C137.004 21.0602 137.927 22.6359 138.119 24.8074C138.292 26.3639 137.158 28.2663 136.197 29.0734C136.197 29.0734 134.083 31.9942 129.356 33.5315C129.356 33.5315 128.242 33.9159 129.183 35.0112C129.183 35.0112 131.124 36.9905 131.528 38.105C131.528 38.105 131.989 39.6999 132.258 40.0651C132.258 40.0651 133.315 42.4863 132.834 43.524C132.834 43.524 132.008 46.3488 128.626 43.5432C128.626 43.5432 128.261 42.64 126.07 41.1796C126.07 41.1796 122.976 37.5093 122.477 36.5677C122.208 36.3948 122.035 36.4332 121.977 36.7406H121.958Z" fill="#1A1A18"/>
<path fill-rule="evenodd" clip-rule="evenodd" d="M123.284 26.7681C123.188 28.536 122.919 30.7843 122.343 33.5899C122.189 34.5315 121.939 35.377 121.785 36.3186C121.401 36.6453 121.036 36.8374 120.748 36.1841C120.248 33.244 120.21 30.1502 120.69 27.1525C120.825 26.2685 121.824 20.7343 122.689 20.8303C123.457 20.9264 123.342 26.1532 123.304 26.7874L123.284 26.7681Z" fill="#1A1A18"/>
<path fill-rule="evenodd" clip-rule="evenodd" d="M122.535 19.7924C122.535 19.7924 124.226 14.9114 127.973 13.6432C127.973 13.6432 128.742 13.2396 128.607 13.8161C128.607 13.8161 128.146 14.3157 126.244 15.5071C126.244 15.5071 123.957 17.448 123.592 18.9853C123.592 18.9853 123.189 19.9845 122.823 19.9653L122.593 20.119L122.535 19.8116V19.7924Z" fill="#1A1A18"/>
<path fill-rule="evenodd" clip-rule="evenodd" d="M122.266 20.0615C122.266 20.0615 122.612 15.392 118.327 11.5872C118.327 11.5872 116.77 10.3189 117.039 11.5103C117.039 11.5103 118 12.2789 118.711 13.0476C118.711 13.0476 120.594 14.3735 120.575 16.0645L121.882 19.7348L122.285 20.0615H122.266Z" fill="#1A1A18"/>
<path fill-rule="evenodd" clip-rule="evenodd" d="M112.869 20.5803C113.773 20.7917 114.33 21.6564 114.138 22.5212C113.926 23.3859 113.042 23.9047 112.139 23.6934C111.236 23.482 110.679 22.6173 110.871 21.7525C111.082 20.8878 111.966 20.369 112.869 20.5803Z" fill="white"/>
<path fill-rule="evenodd" clip-rule="evenodd" d="M114.695 25.9609C115.252 26.0954 115.579 26.6142 115.463 27.1523C115.348 27.6711 114.791 27.9978 114.253 27.8633C113.695 27.7288 113.369 27.2099 113.484 26.6719C113.599 26.153 114.157 25.8263 114.695 25.9609Z" fill="white"/>
<path fill-rule="evenodd" clip-rule="evenodd" d="M134.276 22.6745C135.256 22.9051 135.87 23.8467 135.64 24.7883C135.429 25.7299 134.449 26.2872 133.468 26.0758C132.488 25.8452 131.874 24.9036 132.104 23.962C132.316 23.0204 133.296 22.4632 134.276 22.6745Z" fill="white"/>
<path fill-rule="evenodd" clip-rule="evenodd" d="M129.952 27.6131C130.375 27.7092 130.663 28.1319 130.548 28.5355C130.452 28.9582 130.029 29.208 129.587 29.0927C129.164 28.9966 128.876 28.5739 128.991 28.1703C129.088 27.7476 129.51 27.4978 129.952 27.6131Z" fill="white"/>
<path fill-rule="evenodd" clip-rule="evenodd" d="M130.183 39.0857C130.605 39.1818 130.894 39.6046 130.778 40.0273C130.682 40.4501 130.26 40.6999 129.818 40.5846C129.395 40.4885 129.107 40.0658 129.222 39.643C129.318 39.2202 129.741 38.9704 130.183 39.0857Z" fill="white"/>
<path fill-rule="evenodd" clip-rule="evenodd" d="M110.986 37.7208C111.409 37.8169 111.697 38.2397 111.582 38.6624C111.467 39.0852 111.063 39.335 110.621 39.2197C110.198 39.1236 109.91 38.7008 110.026 38.2973C110.122 37.8745 110.544 37.6247 110.986 37.74V37.7208Z" fill="white"/>
<path fill-rule="evenodd" clip-rule="evenodd" d="M12.2022 22.4214C12.2022 22.4214 13.8723 18.9259 10.3897 16.6214C10.3897 16.6214 5.92325 14.4335 6.35047 21.9423C6.35047 21.9423 6.29869 22.7191 4.52505 21.6834C4.52505 21.6834 0.058589 19.9875 1.08134 22.9651C1.08134 22.9651 2.50543 26.2793 5.78083 26.0075C5.78083 26.0075 7.29555 25.4896 6.89421 26.2923C6.89421 26.2923 5.75495 28.3896 5.85852 30.1373C5.85852 30.1373 5.22415 34.6167 7.50269 33.0244C7.50269 33.0244 9.44463 30.4739 9.36695 29.3476L11.4772 30.4351C11.4772 30.4351 14.5066 32.4547 16.3579 29.0628C16.3579 29.0628 17.4972 27.3668 14.7008 25.0754L12.3446 23.6901L12.2022 22.4084V22.4214Z" fill="#A1D9F8"/>
<path fill-rule="evenodd" clip-rule="evenodd" d="M5.94911 26.0591C3.9036 26.7452 0.485783 24.5703 0.0715025 22.8484C-0.00617505 22.5507 -0.0450111 22.3176 0.0844515 22.0587C0.459893 21.3467 2.05228 21.0748 2.73843 21.1136C3.47637 21.1525 4.13663 21.2431 4.82278 21.5409C5.13349 21.6703 5.43126 21.8775 5.62545 21.9681C5.96205 22.1364 5.83259 22.0587 5.89732 21.6703C6.02678 20.9583 5.76786 20.1685 5.88437 19.4047C6.05267 18.2266 6.20803 17.1391 6.80356 16.3235C6.94596 16.1293 7.69685 15.4949 7.89105 15.3914C8.26649 15.1972 9.03031 15.0289 9.44459 15.003C10.6615 14.9383 11.4772 15.9351 11.9562 16.9449C12.3963 17.8641 12.6553 18.7315 12.7329 19.7672C12.7718 20.2203 12.6553 20.544 12.6294 20.9324C12.5776 21.6574 12.474 22.2529 12.228 22.46L11.9303 22.5507C12.3575 20.6087 12.4222 17.8253 10.8298 16.3882C9.18567 14.8994 7.89105 15.8186 6.88124 17.3851C6.37634 18.1878 6.40222 19.8061 6.44106 20.7252C6.45401 21.2172 6.88124 22.5248 5.94911 22.5636C4.87457 21.9681 1.66389 20.7382 0.563457 22.0199C-0.0320712 23.0426 0.861228 23.6123 1.61211 24.2984C2.95852 25.5154 3.16566 24.9975 4.64153 25.7096L5.17233 25.852C5.35358 25.8261 5.56071 25.7872 5.74196 25.7613C6.02678 25.7613 6.00089 25.9814 5.93616 26.072L5.94911 26.0591Z" fill="#1A1A18"/>
<path fill-rule="evenodd" clip-rule="evenodd" d="M6.20773 27.0173C6.01353 27.1727 5.70282 27.7423 5.46979 28.532C5.30149 29.1405 5.28854 29.9043 5.19792 30.6164C5.0814 31.5485 4.82248 32.3123 4.96489 32.9467C5.15908 33.7623 5.7805 34.3708 6.85504 33.7364C7.03629 33.6328 7.25638 33.361 7.46352 33.1927C8.07199 32.7007 8.42154 31.9369 8.77109 31.2766C9.26305 30.3704 9.32778 29.3476 9.32778 29.3476C10.0528 29.8914 10.5447 30.3186 11.3344 30.5516C12.6679 30.94 13.4835 31.3025 14.1826 31.3155C15.2054 31.3414 15.8009 30.8882 15.8009 30.8882C17.0308 30.1374 17.3803 29.2958 17.6134 28.5579C17.8335 27.8718 17.6263 27.3927 17.3545 26.7972C16.733 25.4896 15.4125 24.4022 14.0791 24.0526C13.4706 23.8843 12.9398 23.6124 12.642 23.7031C12.642 23.7031 12.3572 23.6513 12.4737 23.9361C12.4737 23.9361 13.8201 24.454 14.7523 24.6611C15.8139 25.1142 16.4612 25.8651 16.7978 26.7454C16.9402 27.1209 17.1344 27.5352 17.1214 27.9365C17.0955 28.7651 16.6942 29.6066 15.8527 30.3057C15.2572 30.8235 14.1308 30.9012 13.5224 30.7329C13.5224 30.7329 11.684 30.694 9.69027 29.1534C9.69027 29.1534 9.21126 28.8039 9.01706 29.503C9.01706 29.503 8.7452 30.8882 8.39565 31.3802C8.39565 31.3802 7.86485 32.0405 7.78717 32.2476C7.78717 32.2476 7.07513 33.3869 6.5055 33.4775C6.5055 33.4775 5.0814 33.9436 5.28854 31.7297C5.28854 31.7297 5.56041 31.3155 5.54746 29.982C5.54746 29.982 6.19478 27.6258 6.44076 27.1597C6.44076 27.0044 6.37603 26.9267 6.22068 27.0044L6.20773 27.0173Z" fill="#1A1A18"/>
<path fill-rule="evenodd" clip-rule="evenodd" d="M10.7521 24.6869C9.97529 25.1529 8.96548 25.6967 7.61907 26.2663C7.1789 26.4734 6.75167 26.6159 6.3115 26.823C6.06552 26.7583 5.87132 26.6547 6.06552 26.344C7.153 25.2953 8.43469 24.3891 9.83288 23.7159C10.2472 23.5217 12.8494 22.3436 13.0565 22.732C13.2377 23.0815 11.011 24.5445 10.7391 24.6998L10.7521 24.6869Z" fill="#1A1A18"/>
<path fill-rule="evenodd" clip-rule="evenodd" d="M13.4711 22.3692C13.4711 22.3692 16.0086 21.6701 17.6139 22.8741C17.6139 22.8741 18.0023 23.0812 17.7175 23.1848C17.7175 23.1848 17.3809 23.133 16.3322 22.6799C16.3322 22.6799 14.8693 22.2786 14.1184 22.5763C14.1184 22.5763 13.5876 22.6928 13.4841 22.5375L13.3546 22.4857L13.4582 22.3821L13.4711 22.3692Z" fill="#1A1A18"/>
<path fill-rule="evenodd" clip-rule="evenodd" d="M13.2768 22.3303C13.2768 22.3303 15.3223 21.1263 15.6848 18.2393C15.6848 18.2393 15.7625 17.2295 15.3482 17.6697C15.3482 17.6697 15.3094 18.2911 15.1799 18.8089C15.1799 18.8089 15.1799 19.9871 14.4549 20.4531L13.3027 22.0584L13.2768 22.3174V22.3303Z" fill="#1A1A18"/>
<path fill-rule="evenodd" clip-rule="evenodd" d="M10.3507 18.5374C10.519 18.9776 10.3248 19.4695 9.89756 19.6249C9.48328 19.7932 9.00428 19.5601 8.82303 19.1329C8.65473 18.6927 8.84892 18.2008 9.27615 18.0454C9.69043 17.8771 10.1824 18.1102 10.3507 18.5374Z" fill="white"/>
<path fill-rule="evenodd" clip-rule="evenodd" d="M8.62888 20.8544C8.73245 21.1263 8.61593 21.424 8.35701 21.5147C8.09808 21.6182 7.81326 21.4758 7.70969 21.2169C7.60612 20.945 7.72264 20.6473 7.98156 20.5566C8.24049 20.4531 8.52531 20.5955 8.62888 20.8544Z" fill="white"/>
<path fill-rule="evenodd" clip-rule="evenodd" d="M15.6462 28.1045C15.8274 28.5835 15.6074 29.1143 15.1542 29.2826C14.7011 29.4638 14.1833 29.2179 13.9891 28.7388C13.8078 28.2598 14.0279 27.729 14.481 27.5607C14.9342 27.3795 15.452 27.6255 15.6462 28.1045Z" fill="white"/>
<path fill-rule="evenodd" clip-rule="evenodd" d="M12.3318 27.716C12.4094 27.9231 12.3188 28.1562 12.1117 28.2339C11.9045 28.3115 11.6844 28.208 11.5938 28.0008C11.5161 27.7937 11.6068 27.5607 11.8139 27.483C12.021 27.4053 12.2411 27.5089 12.3318 27.716Z" fill="white"/>
<path fill-rule="evenodd" clip-rule="evenodd" d="M7.59313 31.1343C7.67081 31.3414 7.58019 31.5744 7.37305 31.6521C7.16591 31.7298 6.94582 31.6262 6.8552 31.4191C6.77752 31.212 6.86814 30.9789 7.07528 30.9012C7.28242 30.8236 7.50251 30.9271 7.59313 31.1343Z" fill="white"/>
<path fill-rule="evenodd" clip-rule="evenodd" d="M2.63479 22.6931C2.71247 22.9002 2.62185 23.1333 2.41471 23.2109C2.20757 23.2886 1.98748 23.185 1.89685 22.9779C1.81918 22.7708 1.90981 22.5377 2.11695 22.4601C2.32409 22.3824 2.54417 22.4859 2.63479 22.6931Z" fill="white"/>
<path fill-rule="evenodd" clip-rule="evenodd" d="M69.7032 43.645C69.7032 43.645 73.1424 35.5239 64.9992 30.6424C64.9992 30.6424 54.6371 26.116 56.3678 43.1346C56.3678 43.1346 56.3234 44.9097 52.1963 42.7352C52.1963 42.7352 41.9008 39.3182 44.4969 45.9748C44.4969 45.9748 48.0692 53.3636 55.4802 52.4095C55.4802 52.4095 58.8751 51.0782 58.0319 52.942C58.0319 52.942 55.6356 57.8013 56.0793 61.7731C56.0793 61.7731 55.0808 72.0242 60.1177 68.1412C60.1177 68.1412 64.2669 62.1503 63.9785 59.6208L68.86 61.884C68.86 61.884 75.9603 66.1443 79.799 58.2895C79.799 58.2895 82.1954 54.3177 75.6275 49.414L70.1469 46.5073L69.7032 43.6228V43.645Z" fill="#FEE12B"/>
<path fill-rule="evenodd" clip-rule="evenodd" d="M55.8792 52.5201C51.3084 54.2952 43.3205 49.7022 42.2111 45.8414C42.0114 45.1757 41.8782 44.6654 42.1667 44.0441C42.9655 42.3799 46.5378 41.6255 48.091 41.6255C49.7552 41.6255 51.264 41.7808 52.8838 42.3799C53.616 42.6462 54.3039 43.09 54.7476 43.2675C55.5242 43.6003 55.2358 43.4672 55.3467 42.5574C55.5686 40.9377 54.9029 39.1626 55.0805 37.4097C55.3467 34.7027 55.5908 32.2397 56.8556 30.3093C57.144 29.8655 58.786 28.3345 59.2297 28.0683C60.0729 27.6023 61.7814 27.1141 62.7134 27.0254C65.4647 26.7369 67.4173 28.9558 68.6155 31.1747C69.7028 33.216 70.3684 35.1686 70.6791 37.4984C70.8122 38.5191 70.5681 39.2735 70.5459 40.1611C70.5016 41.803 70.3241 43.1565 69.7915 43.6669L69.1259 43.8888C69.8803 39.4288 69.7693 33.1273 65.9973 29.9987C62.1143 26.7813 59.2519 29.0224 57.144 32.6835C56.0789 34.5473 56.323 38.2307 56.4784 40.3164C56.5671 41.4258 57.6765 44.3547 55.5464 44.5322C53.0391 43.2897 45.6503 40.8267 43.2539 43.8444C41.9892 46.2186 44.0749 47.4389 45.8722 48.9034C49.0451 51.5216 49.4667 50.3456 52.8838 51.8101L54.1042 52.0764C54.5036 51.9876 54.9695 51.8988 55.3911 51.7879C56.0568 51.7879 56.0124 52.2539 55.8792 52.4758V52.5201Z" fill="#1A1A18"/>
<path fill-rule="evenodd" clip-rule="evenodd" d="M56.5666 54.6728C56.1228 55.05 55.5016 56.3813 55.0578 58.2008C54.725 59.5987 54.7915 61.3516 54.6584 62.9713C54.4809 65.0793 53.9927 66.8765 54.3699 68.2966C54.8803 70.1383 56.3447 71.4252 58.7633 69.8942C59.1627 69.6501 59.6286 69.0066 60.0724 68.6073C61.3815 67.4313 62.1138 65.6562 62.846 64.1251C63.8667 61.995 63.911 59.6652 63.911 59.6652C65.6196 60.8412 66.7734 61.751 68.5928 62.1947C71.6771 62.9492 73.5409 63.6814 75.1385 63.637C77.4683 63.5926 78.7774 62.5054 78.7774 62.5054C81.4844 60.6637 82.1945 58.7111 82.6604 57.0248C83.082 55.4494 82.5717 54.3843 81.8838 53.0752C80.3528 50.1685 77.2242 47.8387 74.1844 47.173C72.7865 46.8624 71.5661 46.3077 70.8783 46.5296C70.8783 46.5296 70.2348 46.4408 70.5232 47.0621C70.5232 47.0621 73.6518 48.0828 75.782 48.4822C78.2227 49.3919 79.7759 51.0339 80.6413 53.0086C81.0185 53.8518 81.4844 54.7615 81.4844 55.6713C81.5066 57.5573 80.7078 59.4877 78.844 61.1741C77.5349 62.4166 74.9832 62.7051 73.5853 62.3722C73.5853 62.3722 69.4138 62.461 64.7098 59.1771C64.7098 59.1771 63.5782 58.4227 63.2232 60.0424C63.2232 60.0424 62.7572 63.2154 62.0028 64.3692C62.0028 64.3692 60.849 65.9224 60.6937 66.4106C60.6937 66.4106 59.207 69.0732 57.9201 69.3395C57.9201 69.3395 54.7471 70.5377 54.969 65.4787C54.969 65.4787 55.5459 64.5245 55.3684 61.4847C55.3684 61.4847 56.5888 56.0707 57.1213 54.9834C57.0991 54.6284 56.9438 54.4731 56.611 54.6506L56.5666 54.6728Z" fill="#1A1A18"/>
<path fill-rule="evenodd" clip-rule="evenodd" d="M66.663 48.9258C64.9544 50.0796 62.7134 51.3887 59.7179 52.8088C58.7638 53.3191 57.7875 53.6742 56.8112 54.1845C56.2565 54.0514 55.8127 53.8517 56.2121 53.1194C58.5641 50.6121 61.3821 48.4376 64.4885 46.7513C65.3982 46.2632 71.1895 43.3121 71.6998 44.1774C72.1436 44.954 67.2399 48.482 66.663 48.8814V48.9258Z" fill="#1A1A18"/>
<path fill-rule="evenodd" clip-rule="evenodd" d="M72.5651 43.4006C72.5651 43.4006 78.2454 41.559 82.0175 44.1107C82.0175 44.1107 82.9272 44.5323 82.2837 44.8207C82.2837 44.8207 81.5071 44.7541 79.0886 43.8222C79.0886 43.8222 75.7159 43.0678 74.0518 43.8222C74.0518 43.8222 72.8536 44.1329 72.6317 43.8L72.321 43.6891L72.5651 43.4228V43.4006Z" fill="#1A1A18"/>
<path fill-rule="evenodd" clip-rule="evenodd" d="M72.1435 43.3118C72.1435 43.3118 76.67 40.3829 77.2025 33.7929C77.2025 33.7929 77.2912 31.4853 76.3815 32.5504C76.3815 32.5504 76.3371 33.9704 76.1153 35.1686C76.1153 35.1686 76.204 37.8313 74.6286 38.9851L72.1657 42.7349V43.334L72.1435 43.3118Z" fill="#1A1A18"/>
<path fill-rule="evenodd" clip-rule="evenodd" d="M65.1101 35.0133C65.5317 35.9896 65.1323 37.1212 64.2004 37.5428C63.2685 37.9643 62.1591 37.4984 61.7153 36.5221C61.2715 35.5458 61.6931 34.4142 62.625 33.9926C63.5569 33.571 64.6664 34.037 65.1101 35.0133Z" fill="white"/>
<path fill-rule="evenodd" clip-rule="evenodd" d="M61.4264 40.4496C61.6927 41.0487 61.4264 41.7365 60.8717 41.9806C60.2948 42.2247 59.6291 41.9584 59.3629 41.3593C59.0966 40.7602 59.3629 40.0724 59.9176 39.8283C60.4945 39.5842 61.1601 39.8505 61.4264 40.4496Z" fill="white"/>
<path fill-rule="evenodd" clip-rule="evenodd" d="M78.0901 56.2037C78.556 57.2688 78.1123 58.4892 77.0916 58.9329C76.0709 59.3767 74.8727 58.8886 74.4068 57.8235C73.9408 56.7585 74.3846 55.5381 75.4053 55.0943C76.4259 54.6505 77.6241 55.1387 78.0901 56.2037Z" fill="white"/>
<path fill-rule="evenodd" clip-rule="evenodd" d="M70.5459 55.6487C70.7456 56.1147 70.5459 56.6472 70.1022 56.8469C69.6584 57.0466 69.1259 56.8469 68.9262 56.3588C68.7265 55.8928 68.9262 55.3603 69.3699 55.1606C69.8137 54.9609 70.3462 55.1606 70.5459 55.6487Z" fill="white"/>
<path fill-rule="evenodd" clip-rule="evenodd" d="M60.1395 63.8803C60.3392 64.3463 60.1395 64.8788 59.6957 65.0785C59.2519 65.2782 58.7194 65.0785 58.5197 64.5903C58.32 64.1244 58.5197 63.5918 58.9635 63.3921C59.4072 63.1925 59.9398 63.3921 60.1395 63.8803Z" fill="white"/>
<path fill-rule="evenodd" clip-rule="evenodd" d="M48.0245 45.2426C48.2242 45.7086 48.0245 46.2411 47.5807 46.4408C47.1369 46.6405 46.6044 46.4408 46.4047 45.9526C46.205 45.4867 46.4047 44.9541 46.8485 44.7545C47.2923 44.5548 47.8248 44.7545 48.0245 45.2426Z" fill="white"/>
</svg>
