<svg width="159" height="101" viewBox="0 0 159 101" fill="none" xmlns="http://www.w3.org/2000/svg">
<path fill-rule="evenodd" clip-rule="evenodd" d="M139.414 24.8344C139.414 24.8344 144.542 12.6893 132.369 5.41915C132.369 5.41915 116.899 -1.34378 119.463 24.1017C119.463 24.1017 119.378 26.7505 113.235 23.51C113.235 23.51 97.8497 18.4096 101.738 28.3567C101.738 28.3567 107.092 39.3747 118.139 37.9657C118.139 37.9657 123.211 35.965 121.971 38.7547C121.971 38.7547 118.392 46.0249 119.04 51.9425C119.04 51.9425 117.547 67.2436 125.071 61.4669C125.071 61.4669 131.298 52.506 130.847 48.7301L138.146 52.1115C138.146 52.1115 148.741 58.48 154.489 46.7294C154.489 46.7294 158.096 40.8118 148.234 33.4853L140.034 29.1458L139.357 24.8344H139.414Z" fill="#7EC291"/>
<path fill-rule="evenodd" clip-rule="evenodd" d="M118.73 38.1064C111.911 40.7552 99.9631 33.9077 98.3006 28.1029C98.0188 27.0885 97.8215 26.3276 98.2442 25.4259C99.4277 22.9462 104.782 21.7908 107.092 21.819C109.6 21.819 111.826 22.0444 114.25 22.9462C115.321 23.3407 116.363 23.9888 117.04 24.2706C118.223 24.7778 117.744 24.5524 117.941 23.2279C118.251 20.8046 117.293 18.1557 117.547 15.5351C117.941 11.5055 118.308 7.8141 120.224 4.93986C120.675 4.26357 123.126 1.98107 123.774 1.58657C125.014 0.882098 127.607 0.177626 128.987 0.0367316C133.101 -0.385952 136.032 2.91098 137.807 6.23609C139.442 9.30758 140.428 12.21 140.879 15.676C141.076 17.1977 140.71 18.353 140.682 19.6492C140.625 22.1008 140.372 24.1297 139.554 24.8905L138.54 25.2286C139.667 18.5784 139.498 9.13851 133.862 4.489C128.057 -0.329591 123.774 3.02369 120.618 8.49039C119.012 11.2801 119.378 16.8032 119.604 19.9028C119.717 21.5654 121.379 25.9331 118.223 26.2149C114.475 24.3551 103.429 20.6637 99.8786 25.2005C97.9906 28.751 101.118 30.5545 103.795 32.7806C108.558 36.6974 109.178 34.9222 114.278 37.1201L116.081 37.5428C116.701 37.4019 117.378 37.261 117.998 37.1201C118.984 37.1201 118.927 37.8246 118.73 38.1346V38.1064Z" fill="#1A1A18"/>
<path fill-rule="evenodd" clip-rule="evenodd" d="M119.773 41.3188C119.125 41.8824 118.167 43.8549 117.519 46.5883C117.011 48.6735 117.124 51.2941 116.899 53.7175C116.645 56.8736 115.884 59.5505 116.476 61.664C117.237 64.4255 119.435 66.3417 123.042 64.0592C123.633 63.6928 124.338 62.7348 125.014 62.143C126.987 60.3677 128.057 57.7471 129.156 55.4646C130.678 52.3086 130.734 48.8144 130.734 48.8144C133.299 50.5615 135.018 51.9423 137.723 52.5904C142.316 53.7175 145.106 54.8165 147.501 54.7601C150.995 54.6756 152.939 53.0694 152.939 53.0694C156.997 50.3361 158.04 47.4055 158.716 44.8975C159.364 42.5305 158.603 40.9525 157.561 38.98C155.25 34.6404 150.601 31.1744 146.036 30.16C143.95 29.7091 142.119 28.8638 141.104 29.2019C141.104 29.2019 140.146 29.061 140.569 29.9909C140.569 29.9909 145.247 31.5408 148.431 32.1043C152.094 33.4851 154.405 35.9085 155.701 38.8673C156.264 40.1071 156.969 41.5161 156.969 42.8405C156.997 45.6584 155.785 48.5608 153.024 51.0687C151.08 52.9285 147.275 53.3512 145.162 52.8722C145.162 52.8722 138.934 53.0131 131.918 48.1099C131.918 48.1099 130.227 46.9828 129.692 49.4062C129.692 49.4062 128.987 54.1402 127.888 55.8591C127.888 55.8591 126.169 58.1698 125.944 58.9024C125.944 58.9024 123.718 62.8757 121.774 63.2983C121.774 63.2983 117.039 65.1018 117.349 57.5498C117.349 57.5498 118.195 56.1127 117.941 51.5759C117.941 51.5759 119.773 43.4886 120.534 41.8542C120.505 41.3188 120.252 41.0934 119.773 41.347V41.3188Z" fill="#1A1A18"/>
<path fill-rule="evenodd" clip-rule="evenodd" d="M134.849 32.752C132.312 34.471 128.931 36.4153 124.479 38.5569C123.042 39.3177 121.576 39.8531 120.139 40.6139C119.294 40.4167 118.646 40.1349 119.237 39.0359C122.76 35.2881 126.987 32.0194 131.608 29.5397C132.989 28.807 141.612 24.4111 142.372 25.7073C143.049 26.8627 135.722 32.1603 134.82 32.752H134.849Z" fill="#1A1A18"/>
<path fill-rule="evenodd" clip-rule="evenodd" d="M143.697 24.4673C143.697 24.4673 152.179 21.7058 157.842 25.5381C157.842 25.5381 159.195 26.1863 158.265 26.5808C158.265 26.5808 157.11 26.4681 153.503 25.0873C153.503 25.0873 148.459 23.9601 145.951 25.0873C145.951 25.0873 144.176 25.5663 143.809 25.0309L143.359 24.8619L143.725 24.4673H143.697Z" fill="#1A1A18"/>
<path fill-rule="evenodd" clip-rule="evenodd" d="M143.049 24.3548C143.049 24.3548 149.812 19.9589 150.601 10.1245C150.601 10.1245 150.713 6.65846 149.361 8.26466C149.361 8.26466 149.304 10.4063 148.966 12.1533C148.966 12.1533 149.107 16.1266 146.768 17.8455L143.077 23.4531L143.02 24.3548H143.049Z" fill="#1A1A18"/>
<path fill-rule="evenodd" clip-rule="evenodd" d="M132.538 11.9565C133.186 13.4218 132.566 15.1125 131.185 15.7324C129.776 16.3524 128.114 15.6761 127.466 14.2108C126.818 12.7455 127.438 11.0547 128.818 10.4348C130.199 9.81486 131.89 10.4912 132.538 11.9565Z" fill="white"/>
<path fill-rule="evenodd" clip-rule="evenodd" d="M127.043 20.0719C127.438 20.9737 127.043 21.9881 126.226 22.3544C125.38 22.7208 124.366 22.3262 123.972 21.4245C123.577 20.5228 123.972 19.5084 124.789 19.142C125.634 18.7757 126.649 19.1702 127.043 20.0719Z" fill="white"/>
<path fill-rule="evenodd" clip-rule="evenodd" d="M151.925 43.6014C152.629 45.1794 151.953 47.011 150.46 47.6873C148.938 48.3636 147.135 47.6309 146.43 46.0247C145.726 44.4467 146.402 42.6151 147.895 41.9388C149.417 41.2625 151.22 41.9952 151.925 43.6014Z" fill="white"/>
<path fill-rule="evenodd" clip-rule="evenodd" d="M140.654 42.7845C140.964 43.489 140.654 44.278 140.006 44.588C139.329 44.898 138.54 44.5598 138.23 43.8553C137.92 43.1509 138.23 42.3619 138.879 42.0519C139.555 41.7419 140.344 42.0801 140.654 42.7845Z" fill="white"/>
<path fill-rule="evenodd" clip-rule="evenodd" d="M125.126 55.0697C125.436 55.7742 125.126 56.5632 124.478 56.8732C123.802 57.1831 123.013 56.845 122.703 56.1405C122.393 55.436 122.703 54.647 123.351 54.3371C124.027 54.0271 124.817 54.3652 125.126 55.0697Z" fill="white"/>
<path fill-rule="evenodd" clip-rule="evenodd" d="M106.98 27.2289C107.29 27.9334 106.98 28.7224 106.332 29.0323C105.656 29.3423 104.867 29.0042 104.557 28.2997C104.247 27.5952 104.557 26.8062 105.205 26.4962C105.881 26.1863 106.67 26.5244 106.98 27.2289Z" fill="white"/>
<path fill-rule="evenodd" clip-rule="evenodd" d="M82.4474 71.5005C82.4474 71.5005 81.6378 63.993 73.523 63.7354C73.523 63.7354 63.8994 64.6554 72.2533 76.6896C72.2533 76.6896 72.9526 78.0328 68.978 78.1248C68.978 78.1248 59.8512 79.8545 64.5802 83.7555C64.5802 83.7555 70.3213 87.7853 75.4735 84.0131C75.4735 84.0131 77.4608 81.6026 77.608 83.3507C77.608 83.3507 77.8472 87.9877 79.8161 90.7846C79.8161 90.7846 83.3307 98.8626 85.4836 93.876C85.4836 93.876 86.1092 87.6565 84.8395 85.89L89.4397 85.5588C89.4397 85.5588 96.5241 85.798 96.1377 78.3088C96.1377 78.3088 96.2849 74.3342 89.3293 73.4142L84.0115 73.5246L82.4842 71.5557L82.4474 71.5005Z" fill="#A1D9F8"/>
<path fill-rule="evenodd" clip-rule="evenodd" d="M75.786 83.8848C73.0994 87.1049 65.2055 86.9945 62.7766 84.5656C62.3533 84.1424 62.0405 83.8112 62.0037 83.2408C61.8933 81.6583 64.267 79.6158 65.4263 78.9718C66.6775 78.2909 67.8736 77.7573 69.3273 77.5549C69.9713 77.4629 70.6705 77.4997 71.0938 77.4445C71.8298 77.3709 71.5354 77.3893 71.2409 76.6717C70.7257 75.3652 69.4929 74.2979 68.904 72.9363C67.984 70.8018 67.1376 68.8697 67.2848 66.8824C67.3216 66.4224 67.9104 64.6007 68.1312 64.2143C68.5544 63.515 69.6585 62.4478 70.3025 61.9878C72.253 60.6261 74.6267 61.4725 76.4484 62.6318C78.1229 63.7175 79.4293 64.8951 80.607 66.5144C81.1222 67.232 81.2694 67.8944 81.619 68.5569C82.2815 69.8081 82.7047 70.8938 82.5207 71.501L82.1159 71.9426C80.8278 68.2993 78.1229 63.6254 74.0011 62.8526C69.7689 62.0614 68.5544 64.9135 68.4808 68.5385C68.444 70.3786 70.1737 73.0467 71.149 74.5372C71.6642 75.3284 73.7251 77.0765 72.2162 78.0885C69.8241 78.1989 63.255 79.4318 62.7398 82.6887C62.795 84.9888 64.8559 85.0257 66.8063 85.3937C70.2841 86.0377 70.1001 84.9704 73.2651 84.6392L74.2955 84.3448C74.5715 84.1056 74.8659 83.848 75.1419 83.6088C75.6388 83.3328 75.8044 83.7008 75.786 83.9216V83.8848Z" fill="#1A1A18"/>
<path fill-rule="evenodd" clip-rule="evenodd" d="M77.2029 85.2097C77.0372 85.6697 77.1109 86.9393 77.5341 88.4666C77.8653 89.6443 78.6381 90.9323 79.2085 92.202C79.963 93.8581 80.331 95.4037 81.2142 96.3054C82.3551 97.4646 83.9928 97.8327 85.152 95.6798C85.336 95.3301 85.428 94.6493 85.5936 94.1709C86.0905 92.7356 85.8881 91.1163 85.8145 89.6627C85.7041 87.657 84.7472 85.8905 84.7472 85.8905C86.5137 86.0561 87.7649 86.2585 89.3106 85.8353C91.9235 85.1177 93.6348 84.8968 94.8125 84.1976C96.5422 83.1856 97.0574 81.8423 97.0574 81.8423C98.327 79.3398 98.0326 77.5917 97.683 76.138C97.3518 74.7764 96.5238 74.1875 95.4565 73.4883C93.1012 71.9426 89.789 71.501 87.2313 72.2739C86.0537 72.6235 84.9128 72.7155 84.508 73.1755C84.508 73.1755 83.9928 73.3779 84.4528 73.7275C84.4528 73.7275 87.2129 73.1939 88.9794 72.6051C91.1875 72.2739 93.0276 72.8627 94.4997 73.9667C95.1253 74.4452 95.8613 74.942 96.2477 75.6044C97.039 77.0029 97.2414 78.7878 96.5606 80.8303C96.1005 82.3023 94.3156 83.572 93.1196 83.9216C93.1196 83.9216 90.0467 85.7249 85.152 85.2281C85.152 85.2281 83.9928 85.1361 84.3976 86.4977C84.3976 86.4977 85.3544 89.0554 85.2808 90.2331C85.2808 90.2331 85.06 91.8708 85.152 92.294C85.152 92.294 85.152 94.9069 84.2872 95.6429C84.2872 95.6429 82.4103 97.8694 80.4782 93.9869C80.4782 93.9869 80.515 93.03 79.1165 90.8219C79.1165 90.8219 77.7917 86.2585 77.7181 85.2281C77.5525 84.9705 77.3685 84.9152 77.1845 85.1913L77.2029 85.2097Z" fill="#1A1A18"/>
<path fill-rule="evenodd" clip-rule="evenodd" d="M82.3732 76.7261C81.582 78.2901 80.4411 80.2038 78.8034 82.5223C78.2882 83.3136 77.7178 83.976 77.2026 84.7672C76.7242 84.9144 76.3193 84.9328 76.3193 84.2336C77.037 81.3815 78.2514 78.5661 79.8707 76.0268C80.3491 75.2724 83.4589 70.6722 84.1949 71.1138C84.8573 71.5002 82.6492 76.1924 82.3732 76.7445V76.7261Z" fill="#1A1A18"/>
<path fill-rule="evenodd" clip-rule="evenodd" d="M84.4895 70.1204C84.4895 70.1204 87.9673 66.385 91.8683 66.7162C91.8683 66.7162 92.7147 66.661 92.3651 67.121C92.3651 67.121 91.7579 67.3971 89.5682 67.6915C89.5682 67.6915 86.7344 68.5379 85.7776 69.7708C85.7776 69.7708 85.0232 70.5068 84.6919 70.3412L84.4159 70.378L84.4895 70.0836V70.1204Z" fill="#1A1A18"/>
<path fill-rule="evenodd" clip-rule="evenodd" d="M84.1395 70.2309C84.1395 70.2309 86.3108 66.1459 83.9739 60.9936C83.9739 60.9936 83.0722 59.2272 82.833 60.4048C82.833 60.4048 83.4034 61.4905 83.7162 62.4657C83.7162 62.4657 84.8939 64.4162 84.1947 65.9435L83.9187 69.7709L84.1395 70.2309Z" fill="#1A1A18"/>
<path fill-rule="evenodd" clip-rule="evenodd" d="M75.4179 66.9557C76.154 67.5078 76.3196 68.5198 75.786 69.219C75.2523 69.9183 74.2403 70.0471 73.5043 69.4951C72.7682 68.943 72.6026 67.931 73.1362 67.2318C73.6699 66.5325 74.6819 66.4037 75.4179 66.9557Z" fill="white"/>
<path fill-rule="evenodd" clip-rule="evenodd" d="M74.9211 72.549C75.3627 72.8802 75.4732 73.5058 75.1419 73.9291C74.8291 74.3523 74.2035 74.4259 73.7619 74.0947C73.3203 73.7634 73.2098 73.1378 73.5411 72.7146C73.8539 72.2914 74.4795 72.2178 74.9211 72.549Z" fill="white"/>
<path fill-rule="evenodd" clip-rule="evenodd" d="M93.9476 77.4072C94.7389 78.0144 94.9229 79.1001 94.3341 79.8545C93.7636 80.6089 92.6596 80.7377 91.8683 80.1489C91.0771 79.5601 90.8931 78.456 91.4819 77.7016C92.0523 76.9472 93.1564 76.8184 93.9476 77.4072Z" fill="white"/>
<path fill-rule="evenodd" clip-rule="evenodd" d="M88.0596 80.1305C88.4093 80.3881 88.4829 80.885 88.2253 81.2162C87.9677 81.5474 87.4892 81.6026 87.1396 81.345C86.79 81.0874 86.7164 80.5906 86.974 80.2593C87.2316 79.9281 87.71 79.8729 88.0596 80.1305Z" fill="white"/>
<path fill-rule="evenodd" clip-rule="evenodd" d="M83.6983 90.6188C84.0479 90.8764 84.1215 91.3732 83.8639 91.7045C83.6063 92.0357 83.1279 92.0909 82.7783 91.8333C82.4287 91.5757 82.3551 91.0788 82.6127 90.7476C82.8703 90.4164 83.3487 90.3612 83.6983 90.6188Z" fill="white"/>
<path fill-rule="evenodd" clip-rule="evenodd" d="M66.88 81.7126C67.2296 81.9702 67.3032 82.467 67.0456 82.7982C66.788 83.1294 66.3095 83.1846 65.9599 82.927C65.6103 82.6694 65.5367 82.1726 65.7943 81.8414C66.0519 81.5102 66.5304 81.455 66.88 81.7126Z" fill="white"/>
<path fill-rule="evenodd" clip-rule="evenodd" d="M16.2095 76.2208C16.2095 76.2208 12.4046 69.4196 4.7758 72.5829C4.7758 72.5829 -3.7562 77.5059 8.88807 85.4539C8.88807 85.4539 10.0795 86.4425 6.4284 88.2021C6.4284 88.2021 -1.31573 93.6787 4.66051 95.4185C4.66051 95.4185 11.636 96.842 14.8451 91.0886C14.8451 91.0886 15.6906 87.9648 16.5554 89.5465C16.5554 89.5465 18.6691 93.8566 21.6284 95.6953C21.6284 95.6953 28.1812 101.923 28.1427 96.2489C28.1427 96.2489 26.1827 90.0606 24.2803 88.9138L28.4118 86.6599C28.4118 86.6599 35.0606 83.9118 31.6401 76.9523C31.6401 76.9523 30.1604 73.1168 23.3195 75.1532L18.4578 77.4862L16.2287 76.2604L16.2095 76.2208Z" fill="#E51E5B"/>
<path fill-rule="evenodd" clip-rule="evenodd" d="M15.1137 90.832C13.9415 95.0234 6.60087 98.2461 3.35333 96.9412C2.77684 96.7237 2.3733 96.5458 2.10427 96.012C1.37406 94.5489 2.71919 91.603 3.52627 90.4959C4.41021 89.3096 5.29416 88.321 6.54321 87.5104C7.10048 87.1348 7.77306 86.8778 8.13816 86.68C8.7723 86.3044 8.52249 86.4428 7.96522 85.8694C6.96598 84.8413 5.39026 84.3471 4.27571 83.2992C2.54626 81.6582 0.970515 80.1556 0.317164 78.218C0.163434 77.7633 -0.0479364 75.7862 0.00971228 75.3315C0.12501 74.4813 0.682279 72.9985 1.10504 72.2867C2.35409 70.1712 4.89062 69.9735 7.04284 70.3294C9.04133 70.6457 10.7131 71.2191 12.481 72.267C13.2497 72.7217 13.6532 73.295 14.2489 73.7893C15.3635 74.6988 16.209 75.5489 16.2859 76.2014L16.0937 76.7945C13.4226 73.8684 9.0029 70.5469 4.87141 71.5354C0.624629 72.5635 0.663053 75.806 2.08505 79.2659C2.81527 81.0255 5.48633 82.8445 7.00441 83.8528C7.8115 84.3866 10.4249 85.1774 9.42565 86.7789C7.25421 87.9059 1.68152 91.8205 2.52703 95.1421C3.50706 97.3169 5.42868 96.4865 7.38873 96.012C10.8669 95.1618 10.2712 94.2326 13.0575 92.5916L13.8838 91.8798C14.0376 91.5437 14.2105 91.1483 14.3642 90.8122C14.6909 90.3377 15.0176 90.6145 15.0944 90.832H15.1137Z" fill="#1A1A18"/>
<path fill-rule="evenodd" clip-rule="evenodd" d="M16.958 91.4839C16.9964 91.9979 17.5729 93.1644 18.6106 94.4495C19.3985 95.4381 20.6475 96.3278 21.6852 97.2966C23.0495 98.5619 24.0296 99.8668 25.2018 100.361C26.7391 100.994 28.4109 100.638 28.603 98.1072C28.6415 97.692 28.4493 97 28.4109 96.486C28.2764 94.9043 27.4308 93.461 26.7775 92.1166C25.8551 90.2383 24.2602 88.973 24.2602 88.973C25.9704 88.3798 27.2002 88.0635 28.4493 87.0156C30.5823 85.2362 32.062 84.307 32.869 83.1405C34.0604 81.46 33.9836 79.9574 33.9836 79.9574C34.1373 77.051 33.1573 75.5089 32.2349 74.2633C31.3702 73.1166 30.3709 72.8991 29.1027 72.6816C26.2971 72.2071 23.0495 73.1759 20.9934 74.9948C20.0518 75.8252 19.0141 76.3986 18.8412 76.9917C18.8412 76.9917 18.4377 77.3871 19.0141 77.5255C19.0141 77.5255 21.3585 75.8647 22.7421 74.5599C24.6637 73.3143 26.5853 73.0968 28.4109 73.5318C29.1795 73.7097 30.0635 73.8876 30.6976 74.3621C32.0043 75.3507 32.9267 76.9719 33.1188 79.2061C33.2918 80.8075 32.158 82.7648 31.1972 83.5952C31.1972 83.5952 29.0834 86.6004 24.3562 88.1821C24.3562 88.1821 23.2417 88.5775 24.1833 89.7045C24.1833 89.7045 26.1241 91.7409 26.5277 92.8876C26.5277 92.8876 26.9889 94.5286 27.2579 94.9043C27.2579 94.9043 28.3148 97.3954 27.8344 98.4631C27.8344 98.4631 27.0081 101.369 23.626 98.4828C23.626 98.4828 23.2609 97.5536 21.0703 96.051C21.0703 96.051 17.9765 92.2747 17.4768 91.3059C17.2078 91.128 17.0349 91.1675 16.9772 91.4839H16.958Z" fill="#1A1A18"/>
<path fill-rule="evenodd" clip-rule="evenodd" d="M18.2843 81.2234C18.1883 83.0424 17.9192 85.3556 17.3428 88.2422C17.189 89.2109 16.9392 90.0809 16.7855 91.0497C16.4012 91.3858 16.036 91.5835 15.7478 90.9113C15.2482 87.8863 15.2097 84.7031 15.6902 81.6189C15.8247 80.7094 16.8239 75.0153 17.6886 75.1142C18.4573 75.213 18.342 80.5908 18.3036 81.2432L18.2843 81.2234Z" fill="#1A1A18"/>
<path fill-rule="evenodd" clip-rule="evenodd" d="M17.5352 74.0463C17.5352 74.0463 19.2262 69.0244 22.9733 67.7195C22.9733 67.7195 23.742 67.3043 23.6075 67.8975C23.6075 67.8975 23.1463 68.4115 21.2439 69.6373C21.2439 69.6373 18.9572 71.6342 18.5921 73.2159C18.5921 73.2159 18.1885 74.244 17.8234 74.2242L17.5928 74.3824L17.5352 74.066V74.0463Z" fill="#1A1A18"/>
<path fill-rule="evenodd" clip-rule="evenodd" d="M17.2659 74.3231C17.2659 74.3231 17.6118 69.5188 13.3266 65.6041C13.3266 65.6041 11.77 64.2992 12.0391 65.525C12.0391 65.525 12.9999 66.3159 13.7109 67.1067C13.7109 67.1067 15.5941 68.4709 15.5749 70.2108L16.8816 73.987L17.2851 74.3231H17.2659Z" fill="#1A1A18"/>
<path fill-rule="evenodd" clip-rule="evenodd" d="M7.86935 74.857C8.77251 75.0744 9.32979 75.9641 9.13763 76.8538C8.92625 77.7435 8.0423 78.2774 7.13914 78.0599C6.23597 77.8424 5.6787 76.9527 5.87086 76.063C6.08224 75.1733 6.96619 74.6395 7.86935 74.857Z" fill="white"/>
<path fill-rule="evenodd" clip-rule="evenodd" d="M9.69468 80.3929C10.252 80.5313 10.5786 81.0652 10.4633 81.6188C10.348 82.1526 9.79075 82.4887 9.2527 82.3503C8.69543 82.2119 8.36875 81.6781 8.48405 81.1245C8.59935 80.5907 9.15663 80.2546 9.69468 80.3929Z" fill="white"/>
<path fill-rule="evenodd" clip-rule="evenodd" d="M29.2756 77.0116C30.2556 77.2489 30.8705 78.2177 30.6399 79.1865C30.4285 80.1552 29.4485 80.7286 28.4685 80.5111C27.4884 80.2739 26.8735 79.3051 27.1041 78.3363C27.3155 77.3675 28.2955 76.7942 29.2756 77.0116Z" fill="white"/>
<path fill-rule="evenodd" clip-rule="evenodd" d="M24.9523 82.0928C25.3751 82.1916 25.6633 82.6266 25.548 83.0418C25.4519 83.4767 25.0292 83.7338 24.5872 83.6151C24.1645 83.5163 23.8762 83.0813 23.9915 82.6661C24.0876 82.2312 24.5103 81.9741 24.9523 82.0928Z" fill="white"/>
<path fill-rule="evenodd" clip-rule="evenodd" d="M25.1827 93.8967C25.6054 93.9955 25.8936 94.4305 25.7784 94.8654C25.6823 95.3004 25.2595 95.5574 24.8175 95.4388C24.3948 95.3399 24.1065 94.905 24.2218 94.47C24.3179 94.0351 24.7407 93.778 25.1827 93.8967Z" fill="white"/>
<path fill-rule="evenodd" clip-rule="evenodd" d="M5.98636 92.4923C6.40912 92.5912 6.69736 93.0261 6.58206 93.4611C6.46676 93.8961 6.06322 94.1531 5.62125 94.0345C5.19849 93.9356 4.91026 93.5006 5.02555 93.0854C5.12163 92.6505 5.54439 92.3935 5.98636 92.5121V92.4923Z" fill="white"/>
</svg>
