<svg width="41.82" height="40.62" viewBox="-5.256 62.799 41.817 40.624" fill="none" xmlns="http://www.w3.org/2000/svg">
<path fill-rule="evenodd" clip-rule="evenodd" d="M16.2095 76.2208C16.2095 76.2208 12.4046 69.4196 4.7758 72.5829C4.7758 72.5829 -3.7562 77.5059 8.88807 85.4539C8.88807 85.4539 10.0795 86.4425 6.4284 88.2021C6.4284 88.2021 -1.31573 93.6787 4.66051 95.4185C4.66051 95.4185 11.636 96.842 14.8451 91.0886C14.8451 91.0886 15.6906 87.9648 16.5554 89.5465C16.5554 89.5465 18.6691 93.8566 21.6284 95.6953C21.6284 95.6953 28.1812 101.923 28.1427 96.2489C28.1427 96.2489 26.1827 90.0606 24.2803 88.9138L28.4118 86.6599C28.4118 86.6599 35.0606 83.9118 31.6401 76.9523C31.6401 76.9523 30.1604 73.1168 23.3195 75.1532L18.4578 77.4862L16.2287 76.2604L16.2095 76.2208Z" fill="#E51E5B"/>
<path fill-rule="evenodd" clip-rule="evenodd" d="M15.1137 90.832C13.9415 95.0234 6.60087 98.2461 3.35333 96.9412C2.77684 96.7237 2.3733 96.5458 2.10427 96.012C1.37406 94.5489 2.71919 91.603 3.52627 90.4959C4.41021 89.3096 5.29416 88.321 6.54321 87.5104C7.10048 87.1348 7.77306 86.8778 8.13816 86.68C8.7723 86.3044 8.52249 86.4428 7.96522 85.8694C6.96598 84.8413 5.39026 84.3471 4.27571 83.2992C2.54626 81.6582 0.970515 80.1556 0.317164 78.218C0.163434 77.7633 -0.0479364 75.7862 0.00971228 75.3315C0.12501 74.4813 0.682279 72.9985 1.10504 72.2867C2.35409 70.1712 4.89062 69.9735 7.04284 70.3294C9.04133 70.6457 10.7131 71.2191 12.481 72.267C13.2497 72.7217 13.6532 73.295 14.2489 73.7893C15.3635 74.6988 16.209 75.5489 16.2859 76.2014L16.0937 76.7945C13.4226 73.8684 9.0029 70.5469 4.87141 71.5354C0.624629 72.5635 0.663053 75.806 2.08505 79.2659C2.81527 81.0255 5.48633 82.8445 7.00441 83.8528C7.8115 84.3866 10.4249 85.1774 9.42565 86.7789C7.25421 87.9059 1.68152 91.8205 2.52703 95.1421C3.50706 97.3169 5.42868 96.4865 7.38873 96.012C10.8669 95.1618 10.2712 94.2326 13.0575 92.5916L13.8838 91.8798C14.0376 91.5437 14.2105 91.1483 14.3642 90.8122C14.6909 90.3377 15.0176 90.6145 15.0944 90.832H15.1137Z" fill="#1A1A18"/>
<path fill-rule="evenodd" clip-rule="evenodd" d="M16.958 91.4839C16.9964 91.9979 17.5729 93.1644 18.6106 94.4495C19.3985 95.4381 20.6475 96.3278 21.6852 97.2966C23.0495 98.5619 24.0296 99.8668 25.2018 100.361C26.7391 100.994 28.4109 100.638 28.603 98.1072C28.6415 97.692 28.4493 97 28.4109 96.486C28.2764 94.9043 27.4308 93.461 26.7775 92.1166C25.8551 90.2383 24.2602 88.973 24.2602 88.973C25.9704 88.3798 27.2002 88.0635 28.4493 87.0156C30.5823 85.2362 32.062 84.307 32.869 83.1405C34.0604 81.46 33.9836 79.9574 33.9836 79.9574C34.1373 77.051 33.1573 75.5089 32.2349 74.2633C31.3702 73.1166 30.3709 72.8991 29.1027 72.6816C26.2971 72.2071 23.0495 73.1759 20.9934 74.9948C20.0518 75.8252 19.0141 76.3986 18.8412 76.9917C18.8412 76.9917 18.4377 77.3871 19.0141 77.5255C19.0141 77.5255 21.3585 75.8647 22.7421 74.5599C24.6637 73.3143 26.5853 73.0968 28.4109 73.5318C29.1795 73.7097 30.0635 73.8876 30.6976 74.3621C32.0043 75.3507 32.9267 76.9719 33.1188 79.2061C33.2918 80.8075 32.158 82.7648 31.1972 83.5952C31.1972 83.5952 29.0834 86.6004 24.3562 88.1821C24.3562 88.1821 23.2417 88.5775 24.1833 89.7045C24.1833 89.7045 26.1241 91.7409 26.5277 92.8876C26.5277 92.8876 26.9889 94.5286 27.2579 94.9043C27.2579 94.9043 28.3148 97.3954 27.8344 98.4631C27.8344 98.4631 27.0081 101.369 23.626 98.4828C23.626 98.4828 23.2609 97.5536 21.0703 96.051C21.0703 96.051 17.9765 92.2747 17.4768 91.3059C17.2078 91.128 17.0349 91.1675 16.9772 91.4839H16.958Z" fill="#1A1A18"/>
<path fill-rule="evenodd" clip-rule="evenodd" d="M18.2843 81.2234C18.1883 83.0424 17.9192 85.3556 17.3428 88.2422C17.189 89.2109 16.9392 90.0809 16.7855 91.0497C16.4012 91.3858 16.036 91.5835 15.7478 90.9113C15.2482 87.8863 15.2097 84.7031 15.6902 81.6189C15.8247 80.7094 16.8239 75.0153 17.6886 75.1142C18.4573 75.213 18.342 80.5908 18.3036 81.2432L18.2843 81.2234Z" fill="#1A1A18"/>
<path fill-rule="evenodd" clip-rule="evenodd" d="M17.5352 74.0463C17.5352 74.0463 19.2262 69.0244 22.9733 67.7195C22.9733 67.7195 23.742 67.3043 23.6075 67.8975C23.6075 67.8975 23.1463 68.4115 21.2439 69.6373C21.2439 69.6373 18.9572 71.6342 18.5921 73.2159C18.5921 73.2159 18.1885 74.244 17.8234 74.2242L17.5928 74.3824L17.5352 74.066V74.0463Z" fill="#1A1A18"/>
<path fill-rule="evenodd" clip-rule="evenodd" d="M17.2659 74.3231C17.2659 74.3231 17.6118 69.5188 13.3266 65.6041C13.3266 65.6041 11.77 64.2992 12.0391 65.525C12.0391 65.525 12.9999 66.3159 13.7109 67.1067C13.7109 67.1067 15.5941 68.4709 15.5749 70.2108L16.8816 73.987L17.2851 74.3231H17.2659Z" fill="#1A1A18"/>
<path fill-rule="evenodd" clip-rule="evenodd" d="M7.86935 74.857C8.77251 75.0744 9.32979 75.9641 9.13763 76.8538C8.92625 77.7435 8.0423 78.2774 7.13914 78.0599C6.23597 77.8424 5.6787 76.9527 5.87086 76.063C6.08224 75.1733 6.96619 74.6395 7.86935 74.857Z" fill="white"/>
<path fill-rule="evenodd" clip-rule="evenodd" d="M9.69468 80.3929C10.252 80.5313 10.5786 81.0652 10.4633 81.6188C10.348 82.1526 9.79075 82.4887 9.2527 82.3503C8.69543 82.2119 8.36875 81.6781 8.48405 81.1245C8.59935 80.5907 9.15663 80.2546 9.69468 80.3929Z" fill="white"/>
<path fill-rule="evenodd" clip-rule="evenodd" d="M29.2756 77.0116C30.2556 77.2489 30.8705 78.2177 30.6399 79.1865C30.4285 80.1552 29.4485 80.7286 28.4685 80.5111C27.4884 80.2739 26.8735 79.3051 27.1041 78.3363C27.3155 77.3675 28.2955 76.7942 29.2756 77.0116Z" fill="white"/>
<path fill-rule="evenodd" clip-rule="evenodd" d="M24.9523 82.0928C25.3751 82.1916 25.6633 82.6266 25.548 83.0418C25.4519 83.4767 25.0292 83.7338 24.5872 83.6151C24.1645 83.5163 23.8762 83.0813 23.9915 82.6661C24.0876 82.2312 24.5103 81.9741 24.9523 82.0928Z" fill="white"/>
<path fill-rule="evenodd" clip-rule="evenodd" d="M25.1827 93.8967C25.6054 93.9955 25.8936 94.4305 25.7784 94.8654C25.6823 95.3004 25.2595 95.5574 24.8175 95.4388C24.3948 95.3399 24.1065 94.905 24.2218 94.47C24.3179 94.0351 24.7407 93.778 25.1827 93.8967Z" fill="white"/>
<path fill-rule="evenodd" clip-rule="evenodd" d="M5.98636 92.4923C6.40912 92.5912 6.69736 93.0261 6.58206 93.4611C6.46676 93.8961 6.06322 94.1531 5.62125 94.0345C5.19849 93.9356 4.91026 93.5006 5.02555 93.0854C5.12163 92.6505 5.54439 92.3935 5.98636 92.5121V92.4923Z" fill="white"/>
</svg>
