<svg width="64.54" height="71.59" viewBox="96.322 -2.844 64.543 71.587" fill="none" xmlns="http://www.w3.org/2000/svg">
<path fill-rule="evenodd" clip-rule="evenodd" d="M139.414 24.8344C139.414 24.8344 144.542 12.6893 132.369 5.41915C132.369 5.41915 116.899 -1.34378 119.463 24.1017C119.463 24.1017 119.378 26.7505 113.235 23.51C113.235 23.51 97.8497 18.4096 101.738 28.3567C101.738 28.3567 107.092 39.3747 118.139 37.9657C118.139 37.9657 123.211 35.965 121.971 38.7547C121.971 38.7547 118.392 46.0249 119.04 51.9425C119.04 51.9425 117.547 67.2436 125.071 61.4669C125.071 61.4669 131.298 52.506 130.847 48.7301L138.146 52.1115C138.146 52.1115 148.741 58.48 154.489 46.7294C154.489 46.7294 158.096 40.8118 148.234 33.4853L140.034 29.1458L139.357 24.8344H139.414Z" fill="#7EC291"/>
<path fill-rule="evenodd" clip-rule="evenodd" d="M118.73 38.1064C111.911 40.7552 99.9631 33.9077 98.3006 28.1029C98.0188 27.0885 97.8215 26.3276 98.2442 25.4259C99.4277 22.9462 104.782 21.7908 107.092 21.819C109.6 21.819 111.826 22.0444 114.25 22.9462C115.321 23.3407 116.363 23.9888 117.04 24.2706C118.223 24.7778 117.744 24.5524 117.941 23.2279C118.251 20.8046 117.293 18.1557 117.547 15.5351C117.941 11.5055 118.308 7.8141 120.224 4.93986C120.675 4.26357 123.126 1.98107 123.774 1.58657C125.014 0.882098 127.607 0.177626 128.987 0.0367316C133.101 -0.385952 136.032 2.91098 137.807 6.23609C139.442 9.30758 140.428 12.21 140.879 15.676C141.076 17.1977 140.71 18.353 140.682 19.6492C140.625 22.1008 140.372 24.1297 139.554 24.8905L138.54 25.2286C139.667 18.5784 139.498 9.13851 133.862 4.489C128.057 -0.329591 123.774 3.02369 120.618 8.49039C119.012 11.2801 119.378 16.8032 119.604 19.9028C119.717 21.5654 121.379 25.9331 118.223 26.2149C114.475 24.3551 103.429 20.6637 99.8786 25.2005C97.9906 28.751 101.118 30.5545 103.795 32.7806C108.558 36.6974 109.178 34.9222 114.278 37.1201L116.081 37.5428C116.701 37.4019 117.378 37.261 117.998 37.1201C118.984 37.1201 118.927 37.8246 118.73 38.1346V38.1064Z" fill="#1A1A18"/>
<path fill-rule="evenodd" clip-rule="evenodd" d="M119.773 41.3188C119.125 41.8824 118.167 43.8549 117.519 46.5883C117.011 48.6735 117.124 51.2941 116.899 53.7175C116.645 56.8736 115.884 59.5505 116.476 61.664C117.237 64.4255 119.435 66.3417 123.042 64.0592C123.633 63.6928 124.338 62.7348 125.014 62.143C126.987 60.3677 128.057 57.7471 129.156 55.4646C130.678 52.3086 130.734 48.8144 130.734 48.8144C133.299 50.5615 135.018 51.9423 137.723 52.5904C142.316 53.7175 145.106 54.8165 147.501 54.7601C150.995 54.6756 152.939 53.0694 152.939 53.0694C156.997 50.3361 158.04 47.4055 158.716 44.8975C159.364 42.5305 158.603 40.9525 157.561 38.98C155.25 34.6404 150.601 31.1744 146.036 30.16C143.95 29.7091 142.119 28.8638 141.104 29.2019C141.104 29.2019 140.146 29.061 140.569 29.9909C140.569 29.9909 145.247 31.5408 148.431 32.1043C152.094 33.4851 154.405 35.9085 155.701 38.8673C156.264 40.1071 156.969 41.5161 156.969 42.8405C156.997 45.6584 155.785 48.5608 153.024 51.0687C151.08 52.9285 147.275 53.3512 145.162 52.8722C145.162 52.8722 138.934 53.0131 131.918 48.1099C131.918 48.1099 130.227 46.9828 129.692 49.4062C129.692 49.4062 128.987 54.1402 127.888 55.8591C127.888 55.8591 126.169 58.1698 125.944 58.9024C125.944 58.9024 123.718 62.8757 121.774 63.2983C121.774 63.2983 117.039 65.1018 117.349 57.5498C117.349 57.5498 118.195 56.1127 117.941 51.5759C117.941 51.5759 119.773 43.4886 120.534 41.8542C120.505 41.3188 120.252 41.0934 119.773 41.347V41.3188Z" fill="#1A1A18"/>
<path fill-rule="evenodd" clip-rule="evenodd" d="M134.849 32.752C132.312 34.471 128.931 36.4153 124.479 38.5569C123.042 39.3177 121.576 39.8531 120.139 40.6139C119.294 40.4167 118.646 40.1349 119.237 39.0359C122.76 35.2881 126.987 32.0194 131.608 29.5397C132.989 28.807 141.612 24.4111 142.372 25.7073C143.049 26.8627 135.722 32.1603 134.82 32.752H134.849Z" fill="#1A1A18"/>
<path fill-rule="evenodd" clip-rule="evenodd" d="M143.697 24.4673C143.697 24.4673 152.179 21.7058 157.842 25.5381C157.842 25.5381 159.195 26.1863 158.265 26.5808C158.265 26.5808 157.11 26.4681 153.503 25.0873C153.503 25.0873 148.459 23.9601 145.951 25.0873C145.951 25.0873 144.176 25.5663 143.809 25.0309L143.359 24.8619L143.725 24.4673H143.697Z" fill="#1A1A18"/>
<path fill-rule="evenodd" clip-rule="evenodd" d="M143.049 24.3548C143.049 24.3548 149.812 19.9589 150.601 10.1245C150.601 10.1245 150.713 6.65846 149.361 8.26466C149.361 8.26466 149.304 10.4063 148.966 12.1533C148.966 12.1533 149.107 16.1266 146.768 17.8455L143.077 23.4531L143.02 24.3548H143.049Z" fill="#1A1A18"/>
<path fill-rule="evenodd" clip-rule="evenodd" d="M132.538 11.9565C133.186 13.4218 132.566 15.1125 131.185 15.7324C129.776 16.3524 128.114 15.6761 127.466 14.2108C126.818 12.7455 127.438 11.0547 128.818 10.4348C130.199 9.81486 131.89 10.4912 132.538 11.9565Z" fill="white"/>
<path fill-rule="evenodd" clip-rule="evenodd" d="M127.043 20.0719C127.438 20.9737 127.043 21.9881 126.226 22.3544C125.38 22.7208 124.366 22.3262 123.972 21.4245C123.577 20.5228 123.972 19.5084 124.789 19.142C125.634 18.7757 126.649 19.1702 127.043 20.0719Z" fill="white"/>
<path fill-rule="evenodd" clip-rule="evenodd" d="M151.925 43.6014C152.629 45.1794 151.953 47.011 150.46 47.6873C148.938 48.3636 147.135 47.6309 146.43 46.0247C145.726 44.4467 146.402 42.6151 147.895 41.9388C149.417 41.2625 151.22 41.9952 151.925 43.6014Z" fill="white"/>
<path fill-rule="evenodd" clip-rule="evenodd" d="M140.654 42.7845C140.964 43.489 140.654 44.278 140.006 44.588C139.329 44.898 138.54 44.5598 138.23 43.8553C137.92 43.1509 138.23 42.3619 138.879 42.0519C139.555 41.7419 140.344 42.0801 140.654 42.7845Z" fill="white"/>
<path fill-rule="evenodd" clip-rule="evenodd" d="M125.126 55.0697C125.436 55.7742 125.126 56.5632 124.478 56.8732C123.802 57.1831 123.013 56.845 122.703 56.1405C122.393 55.436 122.703 54.647 123.351 54.3371C124.027 54.0271 124.817 54.3652 125.126 55.0697Z" fill="white"/>
<path fill-rule="evenodd" clip-rule="evenodd" d="M106.98 27.2289C107.29 27.9334 106.98 28.7224 106.332 29.0323C105.656 29.3423 104.867 29.0042 104.557 28.2997C104.247 27.5952 104.557 26.8062 105.205 26.4962C105.881 26.1863 106.67 26.5244 106.98 27.2289Z" fill="white"/>
</svg>
