<svg width="41.48" height="42.64" viewBox="58.351 57.727 41.476 42.635" fill="none" xmlns="http://www.w3.org/2000/svg">
<path fill-rule="evenodd" clip-rule="evenodd" d="M82.4474 71.5005C82.4474 71.5005 81.6378 63.993 73.523 63.7354C73.523 63.7354 63.8994 64.6554 72.2533 76.6896C72.2533 76.6896 72.9526 78.0328 68.978 78.1248C68.978 78.1248 59.8512 79.8545 64.5802 83.7555C64.5802 83.7555 70.3213 87.7853 75.4735 84.0131C75.4735 84.0131 77.4608 81.6026 77.608 83.3507C77.608 83.3507 77.8472 87.9877 79.8161 90.7846C79.8161 90.7846 83.3307 98.8626 85.4836 93.876C85.4836 93.876 86.1092 87.6565 84.8395 85.89L89.4397 85.5588C89.4397 85.5588 96.5241 85.798 96.1377 78.3088C96.1377 78.3088 96.2849 74.3342 89.3293 73.4142L84.0115 73.5246L82.4842 71.5557L82.4474 71.5005Z" fill="#A1D9F8"/>
<path fill-rule="evenodd" clip-rule="evenodd" d="M75.786 83.8848C73.0994 87.1049 65.2055 86.9945 62.7766 84.5656C62.3533 84.1424 62.0405 83.8112 62.0037 83.2408C61.8933 81.6583 64.267 79.6158 65.4263 78.9718C66.6775 78.2909 67.8736 77.7573 69.3273 77.5549C69.9713 77.4629 70.6705 77.4997 71.0938 77.4445C71.8298 77.3709 71.5354 77.3893 71.2409 76.6717C70.7257 75.3652 69.4929 74.2979 68.904 72.9363C67.984 70.8018 67.1376 68.8697 67.2848 66.8824C67.3216 66.4224 67.9104 64.6007 68.1312 64.2143C68.5544 63.515 69.6585 62.4478 70.3025 61.9878C72.253 60.6261 74.6267 61.4725 76.4484 62.6318C78.1229 63.7175 79.4293 64.8951 80.607 66.5144C81.1222 67.232 81.2694 67.8944 81.619 68.5569C82.2815 69.8081 82.7047 70.8938 82.5207 71.501L82.1159 71.9426C80.8278 68.2993 78.1229 63.6254 74.0011 62.8526C69.7689 62.0614 68.5544 64.9135 68.4808 68.5385C68.444 70.3786 70.1737 73.0467 71.149 74.5372C71.6642 75.3284 73.7251 77.0765 72.2162 78.0885C69.8241 78.1989 63.255 79.4318 62.7398 82.6887C62.795 84.9888 64.8559 85.0257 66.8063 85.3937C70.2841 86.0377 70.1001 84.9704 73.2651 84.6392L74.2955 84.3448C74.5715 84.1056 74.8659 83.848 75.1419 83.6088C75.6388 83.3328 75.8044 83.7008 75.786 83.9216V83.8848Z" fill="#1A1A18"/>
<path fill-rule="evenodd" clip-rule="evenodd" d="M77.2029 85.2097C77.0372 85.6697 77.1109 86.9393 77.5341 88.4666C77.8653 89.6443 78.6381 90.9323 79.2085 92.202C79.963 93.8581 80.331 95.4037 81.2142 96.3054C82.3551 97.4646 83.9928 97.8327 85.152 95.6798C85.336 95.3301 85.428 94.6493 85.5936 94.1709C86.0905 92.7356 85.8881 91.1163 85.8145 89.6627C85.7041 87.657 84.7472 85.8905 84.7472 85.8905C86.5137 86.0561 87.7649 86.2585 89.3106 85.8353C91.9235 85.1177 93.6348 84.8968 94.8125 84.1976C96.5422 83.1856 97.0574 81.8423 97.0574 81.8423C98.327 79.3398 98.0326 77.5917 97.683 76.138C97.3518 74.7764 96.5238 74.1875 95.4565 73.4883C93.1012 71.9426 89.789 71.501 87.2313 72.2739C86.0537 72.6235 84.9128 72.7155 84.508 73.1755C84.508 73.1755 83.9928 73.3779 84.4528 73.7275C84.4528 73.7275 87.2129 73.1939 88.9794 72.6051C91.1875 72.2739 93.0276 72.8627 94.4997 73.9667C95.1253 74.4452 95.8613 74.942 96.2477 75.6044C97.039 77.0029 97.2414 78.7878 96.5606 80.8303C96.1005 82.3023 94.3156 83.572 93.1196 83.9216C93.1196 83.9216 90.0467 85.7249 85.152 85.2281C85.152 85.2281 83.9928 85.1361 84.3976 86.4977C84.3976 86.4977 85.3544 89.0554 85.2808 90.2331C85.2808 90.2331 85.06 91.8708 85.152 92.294C85.152 92.294 85.152 94.9069 84.2872 95.6429C84.2872 95.6429 82.4103 97.8694 80.4782 93.9869C80.4782 93.9869 80.515 93.03 79.1165 90.8219C79.1165 90.8219 77.7917 86.2585 77.7181 85.2281C77.5525 84.9705 77.3685 84.9152 77.1845 85.1913L77.2029 85.2097Z" fill="#1A1A18"/>
<path fill-rule="evenodd" clip-rule="evenodd" d="M82.3732 76.7261C81.582 78.2901 80.4411 80.2038 78.8034 82.5223C78.2882 83.3136 77.7178 83.976 77.2026 84.7672C76.7242 84.9144 76.3193 84.9328 76.3193 84.2336C77.037 81.3815 78.2514 78.5661 79.8707 76.0268C80.3491 75.2724 83.4589 70.6722 84.1949 71.1138C84.8573 71.5002 82.6492 76.1924 82.3732 76.7445V76.7261Z" fill="#1A1A18"/>
<path fill-rule="evenodd" clip-rule="evenodd" d="M84.4895 70.1204C84.4895 70.1204 87.9673 66.385 91.8683 66.7162C91.8683 66.7162 92.7147 66.661 92.3651 67.121C92.3651 67.121 91.7579 67.3971 89.5682 67.6915C89.5682 67.6915 86.7344 68.5379 85.7776 69.7708C85.7776 69.7708 85.0232 70.5068 84.6919 70.3412L84.4159 70.378L84.4895 70.0836V70.1204Z" fill="#1A1A18"/>
<path fill-rule="evenodd" clip-rule="evenodd" d="M84.1395 70.2309C84.1395 70.2309 86.3108 66.1459 83.9739 60.9936C83.9739 60.9936 83.0722 59.2272 82.833 60.4048C82.833 60.4048 83.4034 61.4905 83.7162 62.4657C83.7162 62.4657 84.8939 64.4162 84.1947 65.9435L83.9187 69.7709L84.1395 70.2309Z" fill="#1A1A18"/>
<path fill-rule="evenodd" clip-rule="evenodd" d="M75.4179 66.9557C76.154 67.5078 76.3196 68.5198 75.786 69.219C75.2523 69.9183 74.2403 70.0471 73.5043 69.4951C72.7682 68.943 72.6026 67.931 73.1362 67.2318C73.6699 66.5325 74.6819 66.4037 75.4179 66.9557Z" fill="white"/>
<path fill-rule="evenodd" clip-rule="evenodd" d="M74.9211 72.549C75.3627 72.8802 75.4732 73.5058 75.1419 73.9291C74.8291 74.3523 74.2035 74.4259 73.7619 74.0947C73.3203 73.7634 73.2098 73.1378 73.5411 72.7146C73.8539 72.2914 74.4795 72.2178 74.9211 72.549Z" fill="white"/>
<path fill-rule="evenodd" clip-rule="evenodd" d="M93.9476 77.4072C94.7389 78.0144 94.9229 79.1001 94.3341 79.8545C93.7636 80.6089 92.6596 80.7377 91.8683 80.1489C91.0771 79.5601 90.8931 78.456 91.4819 77.7016C92.0523 76.9472 93.1564 76.8184 93.9476 77.4072Z" fill="white"/>
<path fill-rule="evenodd" clip-rule="evenodd" d="M88.0596 80.1305C88.4093 80.3881 88.4829 80.885 88.2253 81.2162C87.9677 81.5474 87.4892 81.6026 87.1396 81.345C86.79 81.0874 86.7164 80.5906 86.974 80.2593C87.2316 79.9281 87.71 79.8729 88.0596 80.1305Z" fill="white"/>
<path fill-rule="evenodd" clip-rule="evenodd" d="M83.6983 90.6188C84.0479 90.8764 84.1215 91.3732 83.8639 91.7045C83.6063 92.0357 83.1279 92.0909 82.7783 91.8333C82.4287 91.5757 82.3551 91.0788 82.6127 90.7476C82.8703 90.4164 83.3487 90.3612 83.6983 90.6188Z" fill="white"/>
<path fill-rule="evenodd" clip-rule="evenodd" d="M66.88 81.7126C67.2296 81.9702 67.3032 82.467 67.0456 82.7982C66.788 83.1294 66.3095 83.1846 65.9599 82.927C65.6103 82.6694 65.5367 82.1726 65.7943 81.8414C66.0519 81.5102 66.5304 81.455 66.88 81.7126Z" fill="white"/>
</svg>
